<?xml version="1.0" encoding="utf-8" standalone="no"?>
<!DOCTYPE svg PUBLIC "-//W3C//DTD SVG 1.1//EN"
  "http://www.w3.org/Graphics/SVG/1.1/DTD/svg11.dtd">
<svg xmlns:xlink="http://www.w3.org/1999/xlink" width="439.485707pt" height="159.783438pt" viewBox="0 0 439.485707 159.783438" xmlns="http://www.w3.org/2000/svg" version="1.1">
 <metadata>
  <rdf:RDF xmlns:dc="http://purl.org/dc/elements/1.1/" xmlns:cc="http://creativecommons.org/ns#" xmlns:rdf="http://www.w3.org/1999/02/22-rdf-syntax-ns#">
   <cc:Work>
    <dc:type rdf:resource="http://purl.org/dc/dcmitype/StillImage"/>
    <dc:date>2025-08-29T15:41:50.529000</dc:date>
    <dc:format>image/svg+xml</dc:format>
    <dc:creator>
     <cc:Agent>
      <dc:title>Matplotlib v3.7.1, https://matplotlib.org/</dc:title>
     </cc:Agent>
    </dc:creator>
   </cc:Work>
  </rdf:RDF>
 </metadata>
 <defs>
  <style type="text/css">*{stroke-linejoin: round; stroke-linecap: butt}</style>
 </defs>
 <g id="figure_1">
  <g id="patch_1">
   <path d="M 0 159.783438 
L 439.485707 159.783438 
L 439.485707 0 
L 0 0 
z
" style="fill: #ffffff"/>
  </g>
  <g id="axes_1">
   <g id="patch_2">
    <path d="M 36.964375 145.644063 
L 206.790462 145.644063 
L 206.790462 34.764063 
L 36.964375 34.764063 
z
" style="fill: #ffffff"/>
   </g>
   <g id="patch_3">
    <path d="M 46.613584 145.644063 
L 81.350739 145.644063 
L 81.350739 79.025881 
L 46.613584 79.025881 
z
" clip-path="url(#p99a6f7e81e)" style="fill: #1f77b4; stroke: #000000; stroke-width: 0.3; stroke-linejoin: miter"/>
   </g>
   <g id="patch_4">
    <path d="M 85.210422 145.644063 
L 119.947577 145.644063 
L 119.947577 71.753153 
L 85.210422 71.753153 
z
" clip-path="url(#p99a6f7e81e)" style="fill: #ff7f0e; stroke: #000000; stroke-width: 0.3; stroke-linejoin: miter"/>
   </g>
   <g id="patch_5">
    <path d="M 123.80726 145.644063 
L 158.544415 145.644063 
L 158.544415 46.734972 
L 123.80726 46.734972 
z
" clip-path="url(#p99a6f7e81e)" style="fill: #2ca02c; stroke: #000000; stroke-width: 0.3; stroke-linejoin: miter"/>
   </g>
   <g id="patch_6">
    <path d="M 162.404098 145.644063 
L 197.141252 145.644063 
L 197.141252 40.044063 
L 162.404098 40.044063 
z
" clip-path="url(#p99a6f7e81e)" style="fill: #d62728; stroke: #000000; stroke-width: 0.3; stroke-linejoin: miter"/>
   </g>
   <g id="matplotlib.axis_1"/>
   <g id="matplotlib.axis_2">
    <g id="ytick_1">
     <g id="line2d_1">
      <path d="M 36.964375 145.644063 
L 206.790462 145.644063 
" clip-path="url(#p99a6f7e81e)" style="fill: none; stroke: #b0b0b0; stroke-width: 0.5; stroke-linecap: square"/>
     </g>
     <g id="line2d_2">
      <defs>
       <path id="mb3354b03fc" d="M 0 0 
L -3.5 0 
" style="stroke: #000000; stroke-width: 0.8"/>
      </defs>
      <g>
       <use xlink:href="#mb3354b03fc" x="36.964375" y="145.644063" style="stroke: #000000; stroke-width: 0.8"/>
      </g>
     </g>
     <g id="text_1">
      <!-- 0 -->
      <g transform="translate(22.37625 150.269688) scale(0.12 -0.12)">
       <defs>
        <path id="LucidaGrande-30" d="M 2006 -116 
Q 1291 -116 848 557 
Q 406 1231 406 2316 
Q 406 3409 851 4075 
Q 1297 4741 2025 4741 
Q 2753 4741 3198 4075 
Q 3644 3409 3644 2325 
Q 3644 1213 3198 548 
Q 2753 -116 2006 -116 
z
M 2013 347 
Q 2991 347 2991 2334 
Q 2991 4278 2025 4278 
Q 1063 4278 1063 2316 
Q 1063 347 2013 347 
z
" transform="scale(0.015625)"/>
       </defs>
       <use xlink:href="#LucidaGrande-30"/>
      </g>
     </g>
    </g>
    <g id="ytick_2">
     <g id="line2d_3">
      <path d="M 36.964375 116.553153 
L 206.790462 116.553153 
" clip-path="url(#p99a6f7e81e)" style="fill: none; stroke: #b0b0b0; stroke-width: 0.5; stroke-linecap: square"/>
     </g>
     <g id="line2d_4">
      <g>
       <use xlink:href="#mb3354b03fc" x="36.964375" y="116.553153" style="stroke: #000000; stroke-width: 0.8"/>
      </g>
     </g>
     <g id="text_2">
      <!-- 100 -->
      <g transform="translate(7.2 121.178778) scale(0.12 -0.12)">
       <defs>
        <path id="LucidaGrande-31" d="M 963 0 
L 963 463 
L 1888 463 
L 1888 4113 
L 963 3881 
L 963 4356 
L 2506 4741 
L 2506 463 
L 3431 463 
L 3431 0 
L 963 0 
z
" transform="scale(0.015625)"/>
       </defs>
       <use xlink:href="#LucidaGrande-31"/>
       <use xlink:href="#LucidaGrande-30" x="63.232422"/>
       <use xlink:href="#LucidaGrande-30" x="126.464844"/>
      </g>
     </g>
    </g>
    <g id="ytick_3">
     <g id="line2d_5">
      <path d="M 36.964375 87.462244 
L 206.790462 87.462244 
" clip-path="url(#p99a6f7e81e)" style="fill: none; stroke: #b0b0b0; stroke-width: 0.5; stroke-linecap: square"/>
     </g>
     <g id="line2d_6">
      <g>
       <use xlink:href="#mb3354b03fc" x="36.964375" y="87.462244" style="stroke: #000000; stroke-width: 0.8"/>
      </g>
     </g>
     <g id="text_3">
      <!-- 200 -->
      <g transform="translate(7.2 92.087869) scale(0.12 -0.12)">
       <defs>
        <path id="LucidaGrande-32" d="M 531 0 
L 531 541 
Q 800 1169 1619 1909 
L 1972 2225 
Q 2653 2841 2653 3447 
Q 2653 3834 2420 4056 
Q 2188 4278 1781 4278 
Q 1300 4278 647 3906 
L 647 4450 
Q 1263 4741 1869 4741 
Q 2519 4741 2912 4391 
Q 3306 4041 3306 3463 
Q 3306 3047 3107 2725 
Q 2909 2403 2369 1944 
L 2131 1741 
Q 1391 1113 1275 541 
L 3284 541 
L 3284 0 
L 531 0 
z
" transform="scale(0.015625)"/>
       </defs>
       <use xlink:href="#LucidaGrande-32"/>
       <use xlink:href="#LucidaGrande-30" x="63.232422"/>
       <use xlink:href="#LucidaGrande-30" x="126.464844"/>
      </g>
     </g>
    </g>
    <g id="ytick_4">
     <g id="line2d_7">
      <path d="M 36.964375 58.371335 
L 206.790462 58.371335 
" clip-path="url(#p99a6f7e81e)" style="fill: none; stroke: #b0b0b0; stroke-width: 0.5; stroke-linecap: square"/>
     </g>
     <g id="line2d_8">
      <g>
       <use xlink:href="#mb3354b03fc" x="36.964375" y="58.371335" style="stroke: #000000; stroke-width: 0.8"/>
      </g>
     </g>
     <g id="text_4">
      <!-- 300 -->
      <g transform="translate(7.2 62.99696) scale(0.12 -0.12)">
       <defs>
        <path id="LucidaGrande-33" d="M 650 34 
L 650 609 
Q 1313 347 1694 347 
Q 2134 347 2411 605 
Q 2688 863 2688 1272 
Q 2688 2247 1322 2247 
L 1078 2247 
L 1078 2663 
L 1294 2666 
Q 2575 2666 2575 3569 
Q 2575 4278 1731 4278 
Q 1269 4278 713 4019 
L 713 4556 
Q 1259 4741 1775 4741 
Q 3194 4741 3194 3669 
Q 3194 2853 2228 2506 
Q 3347 2247 3347 1281 
Q 3347 628 2915 256 
Q 2484 -116 1731 -116 
Q 1303 -116 650 34 
z
" transform="scale(0.015625)"/>
       </defs>
       <use xlink:href="#LucidaGrande-33"/>
       <use xlink:href="#LucidaGrande-30" x="63.232422"/>
       <use xlink:href="#LucidaGrande-30" x="126.464844"/>
      </g>
     </g>
    </g>
   </g>
   <g id="text_5">
    <!-- 229 -->
    <g transform="translate(52.599974 73.712131) scale(0.12 -0.12)">
     <defs>
      <path id="LucidaGrande-39" d="M 728 28 
L 728 550 
Q 1316 347 1728 347 
Q 2303 347 2626 836 
Q 2950 1325 2950 2197 
Q 2481 1619 1884 1619 
Q 1300 1619 894 2048 
Q 488 2478 488 3097 
Q 488 3806 920 4273 
Q 1353 4741 2009 4741 
Q 2763 4741 3197 4136 
Q 3631 3531 3631 2481 
Q 3631 1288 3101 586 
Q 2572 -116 1669 -116 
Q 1306 -116 728 28 
z
M 1103 3219 
Q 1103 2681 1342 2372 
Q 1581 2063 1997 2063 
Q 2388 2063 2664 2328 
Q 2941 2594 2941 2969 
Q 2941 3559 2673 3920 
Q 2406 4281 1972 4281 
Q 1569 4281 1336 3995 
Q 1103 3709 1103 3219 
z
" transform="scale(0.015625)"/>
     </defs>
     <use xlink:href="#LucidaGrande-32"/>
     <use xlink:href="#LucidaGrande-32" x="63.232422"/>
     <use xlink:href="#LucidaGrande-39" x="126.464844"/>
    </g>
   </g>
   <g id="text_6">
    <!-- 254 -->
    <g transform="translate(91.196812 66.439403) scale(0.12 -0.12)">
     <defs>
      <path id="LucidaGrande-35" d="M 778 -19 
L 778 531 
Q 1238 347 1653 347 
Q 2109 347 2370 615 
Q 2631 884 2631 1356 
Q 2631 2397 1197 2397 
Q 1034 2397 856 2375 
L 856 4625 
L 3197 4625 
L 3197 4088 
L 1397 4088 
L 1397 2869 
Q 2288 2869 2788 2459 
Q 3288 2050 3288 1325 
Q 3288 650 2833 267 
Q 2378 -116 1572 -116 
Q 1222 -116 778 -19 
z
" transform="scale(0.015625)"/>
      <path id="LucidaGrande-34" d="M 2409 0 
L 2409 1309 
L 328 1309 
L 328 1775 
L 2409 4625 
L 2988 4625 
L 2988 1813 
L 3606 1813 
L 3606 1309 
L 2988 1309 
L 2988 0 
L 2409 0 
z
M 931 1813 
L 2450 1813 
L 2450 3869 
L 931 1813 
z
" transform="scale(0.015625)"/>
     </defs>
     <use xlink:href="#LucidaGrande-32"/>
     <use xlink:href="#LucidaGrande-35" x="63.232422"/>
     <use xlink:href="#LucidaGrande-34" x="126.464844"/>
    </g>
   </g>
   <g id="text_7">
    <!-- 340 -->
    <g transform="translate(129.79365 41.421222) scale(0.12 -0.12)">
     <use xlink:href="#LucidaGrande-33"/>
     <use xlink:href="#LucidaGrande-34" x="63.232422"/>
     <use xlink:href="#LucidaGrande-30" x="126.464844"/>
    </g>
   </g>
   <g id="text_8">
    <!-- 363 -->
    <g transform="translate(168.390488 34.730313) scale(0.12 -0.12)">
     <defs>
      <path id="LucidaGrande-36" d="M 1100 2397 
Q 1541 2969 2209 2969 
Q 2816 2969 3202 2567 
Q 3588 2166 3588 1538 
Q 3588 816 3155 350 
Q 2722 -116 2056 -116 
Q 1291 -116 859 500 
Q 428 1116 428 2209 
Q 428 3413 923 4078 
Q 1419 4744 2319 4744 
Q 2731 4744 3350 4569 
L 3350 4031 
Q 2697 4281 2281 4281 
Q 1100 4281 1100 2397 
z
M 2969 1400 
Q 2969 1925 2733 2225 
Q 2497 2525 2078 2525 
Q 1688 2525 1406 2262 
Q 1125 2000 1125 1631 
Q 1125 1050 1392 698 
Q 1659 347 2100 347 
Q 2497 347 2733 633 
Q 2969 919 2969 1400 
z
" transform="scale(0.015625)"/>
     </defs>
     <use xlink:href="#LucidaGrande-33"/>
     <use xlink:href="#LucidaGrande-36" x="63.232422"/>
     <use xlink:href="#LucidaGrande-33" x="126.464844"/>
    </g>
   </g>
   <g id="text_9">
    <!-- Matched Genes -->
    <g transform="translate(66.445387 18.764063) scale(0.15 -0.15)">
     <defs>
      <path id="LucidaGrande-4d" d="M 597 0 
L 597 4625 
L 1506 4625 
L 2788 1047 
L 4106 4625 
L 4919 4625 
L 4919 0 
L 4306 0 
L 4306 3763 
L 3031 309 
L 2397 309 
L 1159 3772 
L 1159 0 
L 597 0 
z
" transform="scale(0.015625)"/>
      <path id="LucidaGrande-61" d="M 2366 431 
Q 1813 -78 1300 -78 
Q 878 -78 600 186 
Q 322 450 322 853 
Q 322 1409 789 1707 
Q 1256 2006 2128 2006 
L 2275 2006 
L 2275 2416 
Q 2275 3006 1669 3006 
Q 1181 3006 616 2706 
L 616 3216 
Q 1238 3469 1781 3469 
Q 2350 3469 2620 3212 
Q 2891 2956 2891 2416 
L 2891 878 
Q 2891 350 3216 350 
Q 3256 350 3334 363 
L 3378 22 
Q 3169 -78 2916 -78 
Q 2484 -78 2366 431 
z
M 2275 766 
L 2275 1644 
L 2069 1650 
Q 1563 1650 1250 1458 
Q 938 1266 938 953 
Q 938 731 1094 578 
Q 1250 425 1475 425 
Q 1859 425 2275 766 
z
" transform="scale(0.015625)"/>
      <path id="LucidaGrande-74" d="M 1634 -78 
Q 1166 -78 903 190 
Q 641 459 641 938 
L 641 2931 
L 216 2931 
L 216 3394 
L 641 3394 
L 641 4009 
L 1256 4069 
L 1256 3394 
L 2144 3394 
L 2144 2931 
L 1256 2931 
L 1256 1050 
Q 1256 384 1831 384 
Q 1953 384 2128 425 
L 2128 0 
Q 1844 -78 1634 -78 
z
" transform="scale(0.015625)"/>
      <path id="LucidaGrande-63" d="M 1941 -78 
Q 1253 -78 800 431 
Q 347 941 347 1716 
Q 347 2544 795 3006 
Q 1244 3469 2047 3469 
Q 2444 3469 2934 3359 
L 2934 2844 
Q 2413 2997 2084 2997 
Q 1613 2997 1327 2642 
Q 1041 2288 1041 1697 
Q 1041 1125 1334 772 
Q 1628 419 2103 419 
Q 2525 419 2972 634 
L 2972 103 
Q 2375 -78 1941 -78 
z
" transform="scale(0.015625)"/>
      <path id="LucidaGrande-68" d="M 616 0 
L 616 4934 
L 1231 4934 
L 1231 2756 
Q 1719 3469 2425 3469 
Q 2866 3469 3128 3189 
Q 3391 2909 3391 2438 
L 3391 0 
L 2775 0 
L 2775 2238 
Q 2775 2616 2664 2777 
Q 2553 2938 2297 2938 
Q 1731 2938 1231 2197 
L 1231 0 
L 616 0 
z
" transform="scale(0.015625)"/>
      <path id="LucidaGrande-65" d="M 3103 109 
Q 2484 -78 2044 -78 
Q 1294 -78 820 420 
Q 347 919 347 1713 
Q 347 2484 764 2978 
Q 1181 3472 1831 3472 
Q 2447 3472 2783 3034 
Q 3119 2597 3119 1791 
L 3116 1600 
L 975 1600 
Q 1109 391 2159 391 
Q 2544 391 3103 597 
L 3103 109 
z
M 1003 2063 
L 2500 2063 
Q 2500 3009 1794 3009 
Q 1084 3009 1003 2063 
z
" transform="scale(0.015625)"/>
      <path id="LucidaGrande-64" d="M 2794 0 
L 2794 638 
Q 2419 -78 1663 -78 
Q 1050 -78 698 369 
Q 347 816 347 1591 
Q 347 2438 745 2953 
Q 1144 3469 1794 3469 
Q 2397 3469 2794 3006 
L 2794 4934 
L 3413 4934 
L 3413 0 
L 2794 0 
z
M 2794 2584 
Q 2316 3006 1888 3006 
Q 1003 3006 1003 1653 
Q 1003 463 1791 463 
Q 2303 463 2794 1022 
L 2794 2584 
z
" transform="scale(0.015625)"/>
      <path id="LucidaGrande-20" transform="scale(0.015625)"/>
      <path id="LucidaGrande-47" d="M 4072 125 
Q 3231 -116 2606 -116 
Q 1503 -116 914 512 
Q 325 1141 325 2313 
Q 325 3463 922 4102 
Q 1519 4741 2597 4741 
Q 3303 4741 4066 4531 
L 4066 3925 
Q 3109 4250 2600 4250 
Q 1850 4250 1436 3740 
Q 1022 3231 1022 2306 
Q 1022 1391 1465 883 
Q 1909 375 2709 375 
Q 3038 375 3419 491 
L 3419 1997 
L 4072 1997 
L 4072 125 
z
" transform="scale(0.015625)"/>
      <path id="LucidaGrande-6e" d="M 616 0 
L 616 3394 
L 1231 3394 
L 1231 2756 
Q 1719 3469 2425 3469 
Q 2866 3469 3128 3189 
Q 3391 2909 3391 2438 
L 3391 0 
L 2775 0 
L 2775 2238 
Q 2775 2616 2664 2777 
Q 2553 2938 2297 2938 
Q 1731 2938 1231 2197 
L 1231 0 
L 616 0 
z
" transform="scale(0.015625)"/>
      <path id="LucidaGrande-73" d="M 1516 -78 
Q 1094 -78 491 119 
L 491 684 
Q 1094 384 1541 384 
Q 1806 384 1981 528 
Q 2156 672 2156 888 
Q 2156 1203 1666 1409 
L 1306 1563 
Q 509 1894 509 2516 
Q 509 2959 823 3214 
Q 1138 3469 1684 3469 
Q 1969 3469 2388 3391 
L 2516 3366 
L 2516 2853 
Q 2000 3006 1697 3006 
Q 1103 3006 1103 2575 
Q 1103 2297 1553 2106 
L 1850 1981 
Q 2353 1769 2562 1533 
Q 2772 1297 2772 944 
Q 2772 497 2419 209 
Q 2066 -78 1516 -78 
z
" transform="scale(0.015625)"/>
     </defs>
     <use xlink:href="#LucidaGrande-4d"/>
     <use xlink:href="#LucidaGrande-61" x="86.132812"/>
     <use xlink:href="#LucidaGrande-74" x="141.357422"/>
     <use xlink:href="#LucidaGrande-63" x="178.759766"/>
     <use xlink:href="#LucidaGrande-68" x="229.980469"/>
     <use xlink:href="#LucidaGrande-65" x="292.041016"/>
     <use xlink:href="#LucidaGrande-64" x="347.753906"/>
     <use xlink:href="#LucidaGrande-20" x="410.693359"/>
     <use xlink:href="#LucidaGrande-47" x="442.333984"/>
     <use xlink:href="#LucidaGrande-65" x="514.599609"/>
     <use xlink:href="#LucidaGrande-6e" x="570.3125"/>
     <use xlink:href="#LucidaGrande-65" x="632.373047"/>
     <use xlink:href="#LucidaGrande-73" x="688.085938"/>
    </g>
   </g>
  </g>
  <g id="axes_2">
   <g id="patch_7">
    <path d="M 257.738288 145.644063 
L 427.564375 145.644063 
L 427.564375 34.764063 
L 257.738288 34.764063 
z
" style="fill: #ffffff"/>
   </g>
   <g id="patch_8">
    <path d="M 267.387498 145.644063 
L 302.124652 145.644063 
L 302.124652 87.118761 
L 267.387498 87.118761 
z
" clip-path="url(#p78d61f804a)" style="fill: #1f77b4; stroke: #000000; stroke-width: 0.3; stroke-linejoin: miter"/>
   </g>
   <g id="patch_9">
    <path d="M 305.984335 145.644063 
L 340.72149 145.644063 
L 340.72149 139.282617 
L 305.984335 139.282617 
z
" clip-path="url(#p78d61f804a)" style="fill: #ff7f0e; stroke: #000000; stroke-width: 0.3; stroke-linejoin: miter"/>
   </g>
   <g id="patch_10">
    <path d="M 344.581173 145.644063 
L 379.318328 145.644063 
L 379.318328 40.044063 
L 344.581173 40.044063 
z
" clip-path="url(#p78d61f804a)" style="fill: #2ca02c; stroke: #000000; stroke-width: 0.3; stroke-linejoin: miter"/>
   </g>
   <g id="patch_11">
    <path d="M 383.178011 145.644063 
L 417.915166 145.644063 
L 417.915166 47.677797 
L 383.178011 47.677797 
z
" clip-path="url(#p78d61f804a)" style="fill: #d62728; stroke: #000000; stroke-width: 0.3; stroke-linejoin: miter"/>
   </g>
   <g id="matplotlib.axis_3"/>
   <g id="matplotlib.axis_4">
    <g id="ytick_5">
     <g id="line2d_9">
      <path d="M 257.738288 145.644063 
L 427.564375 145.644063 
" clip-path="url(#p78d61f804a)" style="fill: none; stroke: #b0b0b0; stroke-width: 0.5; stroke-linecap: square"/>
     </g>
     <g id="line2d_10">
      <g>
       <use xlink:href="#mb3354b03fc" x="257.738288" y="145.644063" style="stroke: #000000; stroke-width: 0.8"/>
      </g>
     </g>
     <g id="text_10">
      <!-- 0 -->
      <g transform="translate(243.150163 150.269688) scale(0.12 -0.12)">
       <use xlink:href="#LucidaGrande-30"/>
      </g>
     </g>
    </g>
    <g id="ytick_6">
     <g id="line2d_11">
      <path d="M 257.738288 113.836834 
L 427.564375 113.836834 
" clip-path="url(#p78d61f804a)" style="fill: none; stroke: #b0b0b0; stroke-width: 0.5; stroke-linecap: square"/>
     </g>
     <g id="line2d_12">
      <g>
       <use xlink:href="#mb3354b03fc" x="257.738288" y="113.836834" style="stroke: #000000; stroke-width: 0.8"/>
      </g>
     </g>
     <g id="text_11">
      <!-- 25 -->
      <g transform="translate(235.562038 118.462459) scale(0.12 -0.12)">
       <use xlink:href="#LucidaGrande-32"/>
       <use xlink:href="#LucidaGrande-35" x="63.232422"/>
      </g>
     </g>
    </g>
    <g id="ytick_7">
     <g id="line2d_13">
      <path d="M 257.738288 82.029605 
L 427.564375 82.029605 
" clip-path="url(#p78d61f804a)" style="fill: none; stroke: #b0b0b0; stroke-width: 0.5; stroke-linecap: square"/>
     </g>
     <g id="line2d_14">
      <g>
       <use xlink:href="#mb3354b03fc" x="257.738288" y="82.029605" style="stroke: #000000; stroke-width: 0.8"/>
      </g>
     </g>
     <g id="text_12">
      <!-- 50 -->
      <g transform="translate(235.562038 86.65523) scale(0.12 -0.12)">
       <use xlink:href="#LucidaGrande-35"/>
       <use xlink:href="#LucidaGrande-30" x="63.232422"/>
      </g>
     </g>
    </g>
    <g id="ytick_8">
     <g id="line2d_15">
      <path d="M 257.738288 50.222376 
L 427.564375 50.222376 
" clip-path="url(#p78d61f804a)" style="fill: none; stroke: #b0b0b0; stroke-width: 0.5; stroke-linecap: square"/>
     </g>
     <g id="line2d_16">
      <g>
       <use xlink:href="#mb3354b03fc" x="257.738288" y="50.222376" style="stroke: #000000; stroke-width: 0.8"/>
      </g>
     </g>
     <g id="text_13">
      <!-- 75 -->
      <g transform="translate(235.562038 54.848001) scale(0.12 -0.12)">
       <defs>
        <path id="LucidaGrande-37" d="M 963 0 
Q 1053 541 1220 934 
Q 1388 1328 1813 2016 
L 3075 4047 
L 694 4047 
L 694 4625 
L 3663 4625 
L 3663 4047 
Q 1884 1425 1672 0 
L 963 0 
z
" transform="scale(0.015625)"/>
       </defs>
       <use xlink:href="#LucidaGrande-37"/>
       <use xlink:href="#LucidaGrande-35" x="63.232422"/>
      </g>
     </g>
    </g>
   </g>
   <g id="text_14">
    <!-- 46 -->
    <g transform="translate(277.16795 81.805011) scale(0.12 -0.12)">
     <use xlink:href="#LucidaGrande-34"/>
     <use xlink:href="#LucidaGrande-36" x="63.232422"/>
    </g>
   </g>
   <g id="text_15">
    <!-- 5 -->
    <g transform="translate(319.55885 133.968867) scale(0.12 -0.12)">
     <use xlink:href="#LucidaGrande-35"/>
    </g>
   </g>
   <g id="text_16">
    <!-- 83 -->
    <g transform="translate(354.361625 34.730313) scale(0.12 -0.12)">
     <defs>
      <path id="LucidaGrande-38" d="M 1472 2519 
Q 794 2991 794 3563 
Q 794 4088 1178 4416 
Q 1563 4744 2181 4744 
Q 2753 4744 3108 4466 
Q 3463 4188 3463 3744 
Q 3463 3072 2600 2519 
Q 3647 2006 3647 1197 
Q 3647 616 3208 250 
Q 2769 -116 2075 -116 
Q 1394 -116 973 229 
Q 553 575 553 1138 
Q 553 1969 1472 2519 
z
M 2256 2713 
Q 2903 3138 2903 3659 
Q 2903 3938 2687 4108 
Q 2472 4278 2119 4278 
Q 1778 4278 1565 4111 
Q 1353 3944 1353 3678 
Q 1353 3419 1545 3214 
Q 1738 3009 2256 2713 
z
M 1806 2269 
Q 1434 1981 1301 1767 
Q 1169 1553 1169 1234 
Q 1169 838 1425 592 
Q 1681 347 2100 347 
Q 2503 347 2758 556 
Q 3013 766 3013 1100 
Q 3013 1369 2855 1555 
Q 2697 1741 2244 2009 
L 1806 2269 
z
" transform="scale(0.015625)"/>
     </defs>
     <use xlink:href="#LucidaGrande-38"/>
     <use xlink:href="#LucidaGrande-33" x="63.232422"/>
    </g>
   </g>
   <g id="text_17">
    <!-- 77 -->
    <g transform="translate(392.958463 42.364047) scale(0.12 -0.12)">
     <use xlink:href="#LucidaGrande-37"/>
     <use xlink:href="#LucidaGrande-37" x="63.232422"/>
    </g>
   </g>
   <g id="text_18">
    <!-- Matched Essential Genes -->
    <g transform="translate(253.016957 18.764063) scale(0.15 -0.15)">
     <defs>
      <path id="LucidaGrande-45" d="M 597 0 
L 597 4625 
L 3181 4625 
L 3181 4134 
L 1253 4134 
L 1253 2650 
L 2869 2650 
L 2869 2166 
L 1253 2166 
L 1253 491 
L 3316 491 
L 3316 0 
L 597 0 
z
" transform="scale(0.015625)"/>
      <path id="LucidaGrande-69" d="M 616 0 
L 616 3394 
L 1231 3394 
L 1231 0 
L 616 0 
z
M 616 4009 
L 616 4625 
L 1231 4625 
L 1231 4009 
L 616 4009 
z
" transform="scale(0.015625)"/>
      <path id="LucidaGrande-6c" d="M 616 0 
L 616 4934 
L 1231 4934 
L 1231 0 
L 616 0 
z
" transform="scale(0.015625)"/>
     </defs>
     <use xlink:href="#LucidaGrande-4d"/>
     <use xlink:href="#LucidaGrande-61" x="86.132812"/>
     <use xlink:href="#LucidaGrande-74" x="141.357422"/>
     <use xlink:href="#LucidaGrande-63" x="178.759766"/>
     <use xlink:href="#LucidaGrande-68" x="229.980469"/>
     <use xlink:href="#LucidaGrande-65" x="292.041016"/>
     <use xlink:href="#LucidaGrande-64" x="347.753906"/>
     <use xlink:href="#LucidaGrande-20" x="410.693359"/>
     <use xlink:href="#LucidaGrande-45" x="442.333984"/>
     <use xlink:href="#LucidaGrande-73" x="496.533203"/>
     <use xlink:href="#LucidaGrande-73" x="547.509766"/>
     <use xlink:href="#LucidaGrande-65" x="598.486328"/>
     <use xlink:href="#LucidaGrande-6e" x="654.199219"/>
     <use xlink:href="#LucidaGrande-74" x="716.259766"/>
     <use xlink:href="#LucidaGrande-69" x="753.662109"/>
     <use xlink:href="#LucidaGrande-61" x="782.568359"/>
     <use xlink:href="#LucidaGrande-6c" x="837.792969"/>
     <use xlink:href="#LucidaGrande-20" x="866.699219"/>
     <use xlink:href="#LucidaGrande-47" x="898.339844"/>
     <use xlink:href="#LucidaGrande-65" x="970.605469"/>
     <use xlink:href="#LucidaGrande-6e" x="1026.318359"/>
     <use xlink:href="#LucidaGrande-65" x="1088.378906"/>
     <use xlink:href="#LucidaGrande-73" x="1144.091797"/>
    </g>
   </g>
  </g>
 </g>
 <defs>
  <clipPath id="p99a6f7e81e">
   <rect x="36.964375" y="34.764063" width="169.826087" height="110.88"/>
  </clipPath>
  <clipPath id="p78d61f804a">
   <rect x="257.738288" y="34.764063" width="169.826087" height="110.88"/>
  </clipPath>
 </defs>
</svg>
