<?xml version="1.0" encoding="utf-8" standalone="no"?>
<!DOCTYPE svg PUBLIC "-//W3C//DTD SVG 1.1//EN"
  "http://www.w3.org/Graphics/SVG/1.1/DTD/svg11.dtd">
<svg xmlns:xlink="http://www.w3.org/1999/xlink" width="564.58pt" height="564.697125pt" viewBox="0 0 564.58 564.697125" xmlns="http://www.w3.org/2000/svg" version="1.1">
 <metadata>
  <rdf:RDF xmlns:dc="http://purl.org/dc/elements/1.1/" xmlns:cc="http://creativecommons.org/ns#" xmlns:rdf="http://www.w3.org/1999/02/22-rdf-syntax-ns#">
   <cc:Work>
    <dc:type rdf:resource="http://purl.org/dc/dcmitype/StillImage"/>
    <dc:date>2025-08-29T15:47:38.298762</dc:date>
    <dc:format>image/svg+xml</dc:format>
    <dc:creator>
     <cc:Agent>
      <dc:title>Matplotlib v3.7.1, https://matplotlib.org/</dc:title>
     </cc:Agent>
    </dc:creator>
   </cc:Work>
  </rdf:RDF>
 </metadata>
 <defs>
  <style type="text/css">*{stroke-linejoin: round; stroke-linecap: butt}</style>
 </defs>
 <g id="figure_1">
  <g id="patch_1">
   <path d="M 0 564.697125 
L 564.58 564.697125 
L 564.58 0 
L 0 0 
z
" style="fill: #ffffff"/>
  </g>
  <g id="axes_1">
   <g id="patch_2">
    <path d="M 157.536883 166.695793 
C 123.660125 166.695793 90.964456 179.291461 65.843521 202.019712 
C 40.722587 224.747963 24.928033 256.023988 21.54849 289.731753 
C 18.168947 323.439518 27.440064 357.228629 47.548873 384.491618 
C 67.657682 411.754606 97.202024 430.590463 130.404496 437.315833 
L 157.536883 303.36596 
z
" style="fill: #1f77b4"/>
   </g>
   <g id="patch_3">
    <path d="M 130.404496 437.315833 
C 153.955872 442.086312 178.354056 440.562188 201.128641 432.897784 
C 223.903225 425.233381 244.25869 411.696416 260.133968 393.65756 
C 276.009245 375.618703 286.84981 353.708055 291.558013 330.14415 
C 296.266216 306.580245 294.6776 282.186175 286.953017 259.431931 
L 157.536883 303.36596 
z
" style="fill: #ff7f0e"/>
   </g>
   <g id="patch_4">
    <path d="M 289.328361 258.079439 
C 286.538857 249.86242 282.973098 241.929715 278.679407 234.38883 
C 274.385715 226.847945 269.383576 219.733099 263.740778 213.140712 
L 159.912227 302.013468 
z
" style="fill: #2ca02c"/>
   </g>
   <g id="patch_5">
    <path d="M 268.747932 206.428304 
C 265.144418 202.218379 261.288189 198.231516 257.200606 194.489799 
C 253.113023 190.748083 248.801648 187.258435 244.290366 184.040189 
L 164.919381 295.30106 
z
" style="fill: #d62728"/>
   </g>
   <g id="patch_6">
    <path d="M 242.342939 182.61805 
C 238.655833 179.987753 234.840256 177.542362 230.910334 175.290932 
C 226.980413 173.039503 222.941003 170.984817 218.807061 169.134481 
L 162.971954 293.878921 
z
" style="fill: #9467bd"/>
   </g>
   <g id="patch_7">
    <path d="M 216.990539 168.304059 
C 213.516479 166.749083 209.978976 165.339912 206.387285 164.080231 
C 202.795593 162.82055 199.152846 161.711459 195.468573 160.755857 
L 161.155431 293.048499 
z
" style="fill: #8c564b"/>
   </g>
   <g id="patch_8">
    <path d="M 193.861745 160.326371 
C 190.830523 159.540154 187.773175 158.858351 184.695114 158.282169 
C 181.617053 157.705987 178.520098 157.235766 175.409734 156.87234 
L 159.548604 292.619013 
z
" style="fill: #e377c2"/>
   </g>
   <g id="patch_9">
    <path d="M 174.321824 156.724772 
C 172.886383 156.55705 171.448371 156.412106 170.008332 156.289997 
C 168.568293 156.167887 167.126408 156.068627 165.683221 155.992253 
L 158.460694 292.471445 
z
" style="fill: #7f7f7f"/>
   </g>
   <g id="patch_10">
    <path d="M 165.163967 155.960642 
C 164.442385 155.922456 163.720511 155.889993 162.998414 155.863256 
C 162.276317 155.836519 161.554019 155.81551 160.831588 155.800229 
L 157.941441 292.439834 
z
" style="fill: #bcbd22"/>
   </g>
   <g id="patch_11">
    <path d="M 160.542643 155.793353 
C 160.061024 155.783166 159.579355 155.775525 159.097655 155.770432 
C 158.615955 155.765338 158.134232 155.762791 157.652505 155.762791 
L 157.652496 292.432958 
z
" style="fill: #17becf"/>
   </g>
   <g id="matplotlib.axis_1"/>
   <g id="matplotlib.axis_2"/>
   <g id="text_1">
    <!-- 46.8% -->
    <g transform="translate(46.494695 297.001703) scale(0.11 -0.11)">
     <defs>
      <path id="LucidaGrande-34" d="M 2409 0 
L 2409 1309 
L 328 1309 
L 328 1775 
L 2409 4625 
L 2988 4625 
L 2988 1813 
L 3606 1813 
L 3606 1309 
L 2988 1309 
L 2988 0 
L 2409 0 
z
M 931 1813 
L 2450 1813 
L 2450 3869 
L 931 1813 
z
" transform="scale(0.015625)"/>
      <path id="LucidaGrande-36" d="M 1100 2397 
Q 1541 2969 2209 2969 
Q 2816 2969 3202 2567 
Q 3588 2166 3588 1538 
Q 3588 816 3155 350 
Q 2722 -116 2056 -116 
Q 1291 -116 859 500 
Q 428 1116 428 2209 
Q 428 3413 923 4078 
Q 1419 4744 2319 4744 
Q 2731 4744 3350 4569 
L 3350 4031 
Q 2697 4281 2281 4281 
Q 1100 4281 1100 2397 
z
M 2969 1400 
Q 2969 1925 2733 2225 
Q 2497 2525 2078 2525 
Q 1688 2525 1406 2262 
Q 1125 2000 1125 1631 
Q 1125 1050 1392 698 
Q 1659 347 2100 347 
Q 2497 347 2733 633 
Q 2969 919 2969 1400 
z
" transform="scale(0.015625)"/>
      <path id="LucidaGrande-2e" d="M 625 0 
L 625 772 
L 1397 772 
L 1397 0 
L 625 0 
z
" transform="scale(0.015625)"/>
      <path id="LucidaGrande-38" d="M 1472 2519 
Q 794 2991 794 3563 
Q 794 4088 1178 4416 
Q 1563 4744 2181 4744 
Q 2753 4744 3108 4466 
Q 3463 4188 3463 3744 
Q 3463 3072 2600 2519 
Q 3647 2006 3647 1197 
Q 3647 616 3208 250 
Q 2769 -116 2075 -116 
Q 1394 -116 973 229 
Q 553 575 553 1138 
Q 553 1969 1472 2519 
z
M 2256 2713 
Q 2903 3138 2903 3659 
Q 2903 3938 2687 4108 
Q 2472 4278 2119 4278 
Q 1778 4278 1565 4111 
Q 1353 3944 1353 3678 
Q 1353 3419 1545 3214 
Q 1738 3009 2256 2713 
z
M 1806 2269 
Q 1434 1981 1301 1767 
Q 1169 1553 1169 1234 
Q 1169 838 1425 592 
Q 1681 347 2100 347 
Q 2503 347 2758 556 
Q 3013 766 3013 1100 
Q 3013 1369 2855 1555 
Q 2697 1741 2244 2009 
L 1806 2269 
z
" transform="scale(0.015625)"/>
      <path id="LucidaGrande-25" d="M 75 -116 
L 3719 4741 
L 4200 4741 
L 559 -116 
L 75 -116 
z
M 1006 2313 
Q 566 2313 302 2628 
Q 38 2944 38 3472 
Q 38 4003 303 4314 
Q 569 4625 1022 4625 
Q 1472 4625 1737 4314 
Q 2003 4003 2003 3475 
Q 2003 2934 1737 2623 
Q 1472 2313 1006 2313 
z
M 1016 2622 
Q 1541 2622 1541 3475 
Q 1541 3859 1400 4089 
Q 1259 4319 1022 4319 
Q 781 4319 640 4089 
Q 500 3859 500 3472 
Q 500 3084 640 2853 
Q 781 2622 1016 2622 
z
M 3244 0 
Q 2800 0 2537 314 
Q 2275 628 2275 1156 
Q 2275 1688 2540 2000 
Q 2806 2313 3256 2313 
Q 3706 2313 3973 2002 
Q 4241 1691 4241 1163 
Q 4241 619 3975 309 
Q 3709 0 3244 0 
z
M 3250 309 
Q 3778 309 3778 1163 
Q 3778 1547 3636 1776 
Q 3494 2006 3256 2006 
Q 3019 2006 2878 1776 
Q 2738 1547 2738 1156 
Q 2738 772 2877 540 
Q 3016 309 3250 309 
z
" transform="scale(0.015625)"/>
     </defs>
     <use xlink:href="#LucidaGrande-34"/>
     <use xlink:href="#LucidaGrande-36" x="63.232422"/>
     <use xlink:href="#LucidaGrande-2e" x="126.464844"/>
     <use xlink:href="#LucidaGrande-38" x="158.105469"/>
     <use xlink:href="#LucidaGrande-25" x="221.337891"/>
    </g>
   </g>
   <g id="text_2">
    <!-- 33.4% -->
    <g transform="translate(213.50453 369.749767) scale(0.11 -0.11)">
     <defs>
      <path id="LucidaGrande-33" d="M 650 34 
L 650 609 
Q 1313 347 1694 347 
Q 2134 347 2411 605 
Q 2688 863 2688 1272 
Q 2688 2247 1322 2247 
L 1078 2247 
L 1078 2663 
L 1294 2666 
Q 2575 2666 2575 3569 
Q 2575 4278 1731 4278 
Q 1269 4278 713 4019 
L 713 4556 
Q 1259 4741 1775 4741 
Q 3194 4741 3194 3669 
Q 3194 2853 2228 2506 
Q 3347 2247 3347 1281 
Q 3347 628 2915 256 
Q 2484 -116 1731 -116 
Q 1303 -116 650 34 
z
" transform="scale(0.015625)"/>
     </defs>
     <use xlink:href="#LucidaGrande-33"/>
     <use xlink:href="#LucidaGrande-33" x="63.232422"/>
     <use xlink:href="#LucidaGrande-2e" x="126.464844"/>
     <use xlink:href="#LucidaGrande-34" x="158.105469"/>
     <use xlink:href="#LucidaGrande-25" x="221.337891"/>
    </g>
   </g>
   <g id="text_3">
    <!-- 6.1% -->
    <g transform="translate(230.676831 257.855909) scale(0.11 -0.11)">
     <defs>
      <path id="LucidaGrande-31" d="M 963 0 
L 963 463 
L 1888 463 
L 1888 4113 
L 963 3881 
L 963 4356 
L 2506 4741 
L 2506 463 
L 3431 463 
L 3431 0 
L 963 0 
z
" transform="scale(0.015625)"/>
     </defs>
     <use xlink:href="#LucidaGrande-36"/>
     <use xlink:href="#LucidaGrande-2e" x="63.232422"/>
     <use xlink:href="#LucidaGrande-31" x="94.873047"/>
     <use xlink:href="#LucidaGrande-25" x="158.105469"/>
    </g>
   </g>
   <g id="text_4">
    <!-- 3.9% -->
    <g transform="translate(217.143816 227.912865) scale(0.11 -0.11)">
     <defs>
      <path id="LucidaGrande-39" d="M 728 28 
L 728 550 
Q 1316 347 1728 347 
Q 2303 347 2626 836 
Q 2950 1325 2950 2197 
Q 2481 1619 1884 1619 
Q 1300 1619 894 2048 
Q 488 2478 488 3097 
Q 488 3806 920 4273 
Q 1353 4741 2009 4741 
Q 2763 4741 3197 4136 
Q 3631 3531 3631 2481 
Q 3631 1288 3101 586 
Q 2572 -116 1669 -116 
Q 1306 -116 728 28 
z
M 1103 3219 
Q 1103 2681 1342 2372 
Q 1581 2063 1997 2063 
Q 2388 2063 2664 2328 
Q 2941 2594 2941 2969 
Q 2941 3559 2673 3920 
Q 2406 4281 1972 4281 
Q 1569 4281 1336 3995 
Q 1103 3709 1103 3219 
z
" transform="scale(0.015625)"/>
     </defs>
     <use xlink:href="#LucidaGrande-33"/>
     <use xlink:href="#LucidaGrande-2e" x="63.232422"/>
     <use xlink:href="#LucidaGrande-39" x="94.873047"/>
     <use xlink:href="#LucidaGrande-25" x="158.105469"/>
    </g>
   </g>
   <g id="text_5">
    <!-- 3.2% -->
    <g transform="translate(198.156398 214.047017) scale(0.11 -0.11)">
     <defs>
      <path id="LucidaGrande-32" d="M 531 0 
L 531 541 
Q 800 1169 1619 1909 
L 1972 2225 
Q 2653 2841 2653 3447 
Q 2653 3834 2420 4056 
Q 2188 4278 1781 4278 
Q 1300 4278 647 3906 
L 647 4450 
Q 1263 4741 1869 4741 
Q 2519 4741 2912 4391 
Q 3306 4041 3306 3463 
Q 3306 3047 3107 2725 
Q 2909 2403 2369 1944 
L 2131 1741 
Q 1391 1113 1275 541 
L 3284 541 
L 3284 0 
L 531 0 
z
" transform="scale(0.015625)"/>
     </defs>
     <use xlink:href="#LucidaGrande-33"/>
     <use xlink:href="#LucidaGrande-2e" x="63.232422"/>
     <use xlink:href="#LucidaGrande-32" x="94.873047"/>
     <use xlink:href="#LucidaGrande-25" x="158.105469"/>
    </g>
   </g>
   <g id="text_6">
    <!-- 2.7% -->
    <g transform="translate(180.445307 205.950399) scale(0.11 -0.11)">
     <defs>
      <path id="LucidaGrande-37" d="M 963 0 
Q 1053 541 1220 934 
Q 1388 1328 1813 2016 
L 3075 4047 
L 694 4047 
L 694 4625 
L 3663 4625 
L 3663 4047 
Q 1884 1425 1672 0 
L 963 0 
z
" transform="scale(0.015625)"/>
     </defs>
     <use xlink:href="#LucidaGrande-32"/>
     <use xlink:href="#LucidaGrande-2e" x="63.232422"/>
     <use xlink:href="#LucidaGrande-37" x="94.873047"/>
     <use xlink:href="#LucidaGrande-25" x="158.105469"/>
    </g>
   </g>
   <g id="text_7">
    <!-- 2.2% -->
    <g transform="translate(164.778739 201.762909) scale(0.11 -0.11)">
     <use xlink:href="#LucidaGrande-32"/>
     <use xlink:href="#LucidaGrande-2e" x="63.232422"/>
     <use xlink:href="#LucidaGrande-32" x="94.873047"/>
     <use xlink:href="#LucidaGrande-25" x="158.105469"/>
    </g>
   </g>
   <g id="text_8">
    <!-- 1.0% -->
    <g transform="translate(154.171619 200.324119) scale(0.11 -0.11)">
     <defs>
      <path id="LucidaGrande-30" d="M 2006 -116 
Q 1291 -116 848 557 
Q 406 1231 406 2316 
Q 406 3409 851 4075 
Q 1297 4741 2025 4741 
Q 2753 4741 3198 4075 
Q 3644 3409 3644 2325 
Q 3644 1213 3198 548 
Q 2753 -116 2006 -116 
z
M 2013 347 
Q 2991 347 2991 2334 
Q 2991 4278 2025 4278 
Q 1063 4278 1063 2316 
Q 1063 347 2013 347 
z
" transform="scale(0.015625)"/>
     </defs>
     <use xlink:href="#LucidaGrande-31"/>
     <use xlink:href="#LucidaGrande-2e" x="63.232422"/>
     <use xlink:href="#LucidaGrande-30" x="94.873047"/>
     <use xlink:href="#LucidaGrande-25" x="158.105469"/>
    </g>
   </g>
   <g id="text_9">
    <!-- Recon3D Systems (Small Slices Expanded) -->
    <g transform="translate(11.72675 18.3015) scale(0.144 -0.144)">
     <defs>
      <path id="LucidaGrande-52" d="M 597 0 
L 597 4625 
L 1997 4625 
Q 2663 4625 3017 4331 
Q 3372 4038 3372 3478 
Q 3372 2553 2438 2166 
L 3981 0 
L 3175 0 
L 1859 1956 
L 1247 1956 
L 1247 0 
L 597 0 
z
M 1247 2447 
L 1459 2447 
Q 2697 2447 2697 3419 
Q 2697 4134 1659 4134 
L 1247 4134 
L 1247 2447 
z
" transform="scale(0.015625)"/>
      <path id="LucidaGrande-65" d="M 3103 109 
Q 2484 -78 2044 -78 
Q 1294 -78 820 420 
Q 347 919 347 1713 
Q 347 2484 764 2978 
Q 1181 3472 1831 3472 
Q 2447 3472 2783 3034 
Q 3119 2597 3119 1791 
L 3116 1600 
L 975 1600 
Q 1109 391 2159 391 
Q 2544 391 3103 597 
L 3103 109 
z
M 1003 2063 
L 2500 2063 
Q 2500 3009 1794 3009 
Q 1084 3009 1003 2063 
z
" transform="scale(0.015625)"/>
      <path id="LucidaGrande-63" d="M 1941 -78 
Q 1253 -78 800 431 
Q 347 941 347 1716 
Q 347 2544 795 3006 
Q 1244 3469 2047 3469 
Q 2444 3469 2934 3359 
L 2934 2844 
Q 2413 2997 2084 2997 
Q 1613 2997 1327 2642 
Q 1041 2288 1041 1697 
Q 1041 1125 1334 772 
Q 1628 419 2103 419 
Q 2525 419 2972 634 
L 2972 103 
Q 2375 -78 1941 -78 
z
" transform="scale(0.015625)"/>
      <path id="LucidaGrande-6f" d="M 1944 -78 
Q 1216 -78 781 405 
Q 347 888 347 1697 
Q 347 2516 783 2992 
Q 1219 3469 1966 3469 
Q 2713 3469 3148 2992 
Q 3584 2516 3584 1703 
Q 3584 872 3146 397 
Q 2709 -78 1944 -78 
z
M 1953 384 
Q 2931 384 2931 1703 
Q 2931 3006 1966 3006 
Q 1003 3006 1003 1697 
Q 1003 384 1953 384 
z
" transform="scale(0.015625)"/>
      <path id="LucidaGrande-6e" d="M 616 0 
L 616 3394 
L 1231 3394 
L 1231 2756 
Q 1719 3469 2425 3469 
Q 2866 3469 3128 3189 
Q 3391 2909 3391 2438 
L 3391 0 
L 2775 0 
L 2775 2238 
Q 2775 2616 2664 2777 
Q 2553 2938 2297 2938 
Q 1731 2938 1231 2197 
L 1231 0 
L 616 0 
z
" transform="scale(0.015625)"/>
      <path id="LucidaGrande-44" d="M 597 0 
L 597 4625 
L 2134 4625 
Q 2822 4625 3245 4472 
Q 3669 4319 3978 3953 
Q 4469 3372 4469 2422 
Q 4469 1269 3859 634 
Q 3250 0 2144 0 
L 597 0 
z
M 1253 491 
L 2094 491 
Q 2994 491 3369 975 
Q 3772 1491 3772 2359 
Q 3772 3175 3375 3641 
Q 3134 3925 2800 4029 
Q 2466 4134 1794 4134 
L 1253 4134 
L 1253 491 
z
" transform="scale(0.015625)"/>
      <path id="LucidaGrande-20" transform="scale(0.015625)"/>
      <path id="LucidaGrande-53" d="M 1503 -116 
Q 1038 -116 313 88 
L 313 738 
Q 1094 375 1597 375 
Q 1984 375 2220 578 
Q 2456 781 2456 1113 
Q 2456 1384 2301 1575 
Q 2147 1766 1731 2000 
L 1413 2184 
Q 822 2522 580 2820 
Q 338 3119 338 3516 
Q 338 4050 725 4395 
Q 1113 4741 1713 4741 
Q 2247 4741 2841 4563 
L 2841 3963 
Q 2109 4250 1750 4250 
Q 1409 4250 1187 4069 
Q 966 3888 966 3613 
Q 966 3381 1128 3203 
Q 1291 3025 1722 2778 
L 2053 2591 
Q 2653 2250 2890 1947 
Q 3128 1644 3128 1219 
Q 3128 616 2683 250 
Q 2238 -116 1503 -116 
z
" transform="scale(0.015625)"/>
      <path id="LucidaGrande-79" d="M 813 -1234 
L 1363 0 
L 50 3394 
L 716 3394 
L 1688 838 
L 2725 3394 
L 3306 3394 
L 1453 -1234 
L 813 -1234 
z
" transform="scale(0.015625)"/>
      <path id="LucidaGrande-73" d="M 1516 -78 
Q 1094 -78 491 119 
L 491 684 
Q 1094 384 1541 384 
Q 1806 384 1981 528 
Q 2156 672 2156 888 
Q 2156 1203 1666 1409 
L 1306 1563 
Q 509 1894 509 2516 
Q 509 2959 823 3214 
Q 1138 3469 1684 3469 
Q 1969 3469 2388 3391 
L 2516 3366 
L 2516 2853 
Q 2000 3006 1697 3006 
Q 1103 3006 1103 2575 
Q 1103 2297 1553 2106 
L 1850 1981 
Q 2353 1769 2562 1533 
Q 2772 1297 2772 944 
Q 2772 497 2419 209 
Q 2066 -78 1516 -78 
z
" transform="scale(0.015625)"/>
      <path id="LucidaGrande-74" d="M 1634 -78 
Q 1166 -78 903 190 
Q 641 459 641 938 
L 641 2931 
L 216 2931 
L 216 3394 
L 641 3394 
L 641 4009 
L 1256 4069 
L 1256 3394 
L 2144 3394 
L 2144 2931 
L 1256 2931 
L 1256 1050 
Q 1256 384 1831 384 
Q 1953 384 2128 425 
L 2128 0 
Q 1844 -78 1634 -78 
z
" transform="scale(0.015625)"/>
      <path id="LucidaGrande-6d" d="M 616 0 
L 616 3394 
L 1231 3394 
L 1231 2756 
Q 1681 3469 2388 3469 
Q 3069 3469 3316 2756 
Q 3753 3472 4453 3472 
Q 4903 3472 5150 3208 
Q 5397 2944 5397 2469 
L 5397 0 
L 4778 0 
L 4778 2372 
Q 4778 2953 4319 2953 
Q 3841 2953 3316 2275 
L 3316 0 
L 2697 0 
L 2697 2372 
Q 2697 2956 2228 2956 
Q 1763 2956 1231 2275 
L 1231 0 
L 616 0 
z
" transform="scale(0.015625)"/>
      <path id="LucidaGrande-28" d="M 1850 -500 
L 1850 -925 
Q 1175 -466 779 323 
Q 384 1113 384 2006 
Q 384 2897 779 3686 
Q 1175 4475 1850 4934 
L 1850 4509 
Q 1391 4009 1195 3434 
Q 1000 2859 1000 2006 
Q 1000 1150 1195 575 
Q 1391 0 1850 -500 
z
" transform="scale(0.015625)"/>
      <path id="LucidaGrande-61" d="M 2366 431 
Q 1813 -78 1300 -78 
Q 878 -78 600 186 
Q 322 450 322 853 
Q 322 1409 789 1707 
Q 1256 2006 2128 2006 
L 2275 2006 
L 2275 2416 
Q 2275 3006 1669 3006 
Q 1181 3006 616 2706 
L 616 3216 
Q 1238 3469 1781 3469 
Q 2350 3469 2620 3212 
Q 2891 2956 2891 2416 
L 2891 878 
Q 2891 350 3216 350 
Q 3256 350 3334 363 
L 3378 22 
Q 3169 -78 2916 -78 
Q 2484 -78 2366 431 
z
M 2275 766 
L 2275 1644 
L 2069 1650 
Q 1563 1650 1250 1458 
Q 938 1266 938 953 
Q 938 731 1094 578 
Q 1250 425 1475 425 
Q 1859 425 2275 766 
z
" transform="scale(0.015625)"/>
      <path id="LucidaGrande-6c" d="M 616 0 
L 616 4934 
L 1231 4934 
L 1231 0 
L 616 0 
z
" transform="scale(0.015625)"/>
      <path id="LucidaGrande-69" d="M 616 0 
L 616 3394 
L 1231 3394 
L 1231 0 
L 616 0 
z
M 616 4009 
L 616 4625 
L 1231 4625 
L 1231 4009 
L 616 4009 
z
" transform="scale(0.015625)"/>
      <path id="LucidaGrande-45" d="M 597 0 
L 597 4625 
L 3181 4625 
L 3181 4134 
L 1253 4134 
L 1253 2650 
L 2869 2650 
L 2869 2166 
L 1253 2166 
L 1253 491 
L 3316 491 
L 3316 0 
L 597 0 
z
" transform="scale(0.015625)"/>
      <path id="LucidaGrande-78" d="M 275 0 
L 1566 1753 
L 313 3394 
L 1044 3394 
L 2034 2088 
L 2931 3394 
L 3531 3394 
L 2356 1672 
L 3634 0 
L 2903 0 
L 1881 1344 
L 894 0 
L 275 0 
z
" transform="scale(0.015625)"/>
      <path id="LucidaGrande-70" d="M 616 -1234 
L 616 3394 
L 1231 3394 
L 1231 2756 
Q 1609 3469 2366 3469 
Q 2978 3469 3329 3022 
Q 3681 2575 3681 1800 
Q 3681 956 3282 439 
Q 2884 -78 2234 -78 
Q 1631 -78 1231 384 
L 1231 -1234 
L 616 -1234 
z
M 1231 809 
Q 1706 384 2138 384 
Q 3025 384 3025 1738 
Q 3025 2931 2238 2931 
Q 1722 2931 1231 2372 
L 1231 809 
z
" transform="scale(0.015625)"/>
      <path id="LucidaGrande-64" d="M 2794 0 
L 2794 638 
Q 2419 -78 1663 -78 
Q 1050 -78 698 369 
Q 347 816 347 1591 
Q 347 2438 745 2953 
Q 1144 3469 1794 3469 
Q 2397 3469 2794 3006 
L 2794 4934 
L 3413 4934 
L 3413 0 
L 2794 0 
z
M 2794 2584 
Q 2316 3006 1888 3006 
Q 1003 3006 1003 1653 
Q 1003 463 1791 463 
Q 2303 463 2794 1022 
L 2794 2584 
z
" transform="scale(0.015625)"/>
      <path id="LucidaGrande-29" d="M 231 -500 
L 231 -925 
Q 906 -466 1301 323 
Q 1697 1113 1697 2006 
Q 1697 2897 1301 3686 
Q 906 4475 231 4934 
L 231 4509 
Q 691 4009 886 3434 
Q 1081 2859 1081 2006 
Q 1081 1150 886 575 
Q 691 0 231 -500 
z
" transform="scale(0.015625)"/>
     </defs>
     <use xlink:href="#LucidaGrande-52"/>
     <use xlink:href="#LucidaGrande-65" x="63.232422"/>
     <use xlink:href="#LucidaGrande-63" x="118.945312"/>
     <use xlink:href="#LucidaGrande-6f" x="170.166016"/>
     <use xlink:href="#LucidaGrande-6e" x="231.591797"/>
     <use xlink:href="#LucidaGrande-33" x="293.652344"/>
     <use xlink:href="#LucidaGrande-44" x="356.884766"/>
     <use xlink:href="#LucidaGrande-20" x="431.787109"/>
     <use xlink:href="#LucidaGrande-53" x="463.427734"/>
     <use xlink:href="#LucidaGrande-79" x="517.285156"/>
     <use xlink:href="#LucidaGrande-73" x="569.53125"/>
     <use xlink:href="#LucidaGrande-74" x="620.507812"/>
     <use xlink:href="#LucidaGrande-65" x="657.910156"/>
     <use xlink:href="#LucidaGrande-6d" x="713.623047"/>
     <use xlink:href="#LucidaGrande-73" x="806.982422"/>
     <use xlink:href="#LucidaGrande-20" x="857.958984"/>
     <use xlink:href="#LucidaGrande-28" x="889.599609"/>
     <use xlink:href="#LucidaGrande-53" x="922.119141"/>
     <use xlink:href="#LucidaGrande-6d" x="975.976562"/>
     <use xlink:href="#LucidaGrande-61" x="1069.335938"/>
     <use xlink:href="#LucidaGrande-6c" x="1124.560547"/>
     <use xlink:href="#LucidaGrande-6c" x="1153.466797"/>
     <use xlink:href="#LucidaGrande-20" x="1182.373047"/>
     <use xlink:href="#LucidaGrande-53" x="1214.013672"/>
     <use xlink:href="#LucidaGrande-6c" x="1267.871094"/>
     <use xlink:href="#LucidaGrande-69" x="1296.777344"/>
     <use xlink:href="#LucidaGrande-63" x="1325.683594"/>
     <use xlink:href="#LucidaGrande-65" x="1376.904297"/>
     <use xlink:href="#LucidaGrande-73" x="1432.617188"/>
     <use xlink:href="#LucidaGrande-20" x="1483.59375"/>
     <use xlink:href="#LucidaGrande-45" x="1515.234375"/>
     <use xlink:href="#LucidaGrande-78" x="1569.433594"/>
     <use xlink:href="#LucidaGrande-70" x="1630.761719"/>
     <use xlink:href="#LucidaGrande-61" x="1693.701172"/>
     <use xlink:href="#LucidaGrande-6e" x="1748.925781"/>
     <use xlink:href="#LucidaGrande-64" x="1810.986328"/>
     <use xlink:href="#LucidaGrande-65" x="1873.925781"/>
     <use xlink:href="#LucidaGrande-64" x="1929.638672"/>
     <use xlink:href="#LucidaGrande-29" x="1992.578125"/>
    </g>
   </g>
   <g id="legend_1">
    <g id="patch_12">
     <path d="M 314.87375 380.563219 
L 555.38 380.563219 
Q 557.38 380.563219 557.38 378.563219 
L 557.38 217.235406 
Q 557.38 215.235406 555.38 215.235406 
L 314.87375 215.235406 
Q 312.87375 215.235406 312.87375 217.235406 
L 312.87375 378.563219 
Q 312.87375 380.563219 314.87375 380.563219 
z
" style="fill: #ffffff; opacity: 0.8; stroke: #cccccc; stroke-linejoin: miter"/>
    </g>
    <g id="text_10">
     <!-- Systems -->
     <g transform="translate(413.425937 227.715719) scale(0.11 -0.11)">
      <use xlink:href="#LucidaGrande-53"/>
      <use xlink:href="#LucidaGrande-79" x="53.857422"/>
      <use xlink:href="#LucidaGrande-73" x="106.103516"/>
      <use xlink:href="#LucidaGrande-74" x="157.080078"/>
      <use xlink:href="#LucidaGrande-65" x="194.482422"/>
      <use xlink:href="#LucidaGrande-6d" x="250.195312"/>
      <use xlink:href="#LucidaGrande-73" x="343.554688"/>
     </g>
    </g>
    <g id="patch_13">
     <path d="M 316.87375 242.546031 
L 336.87375 242.546031 
L 336.87375 235.546031 
L 316.87375 235.546031 
z
" style="fill: #1f77b4"/>
    </g>
    <g id="text_11">
     <!-- Lipid Metabolism (1391, 46.8%) -->
     <g transform="translate(344.87375 242.546031) scale(0.1 -0.1)">
      <defs>
       <path id="LucidaGrande-4c" d="M 597 0 
L 597 4625 
L 1253 4625 
L 1253 491 
L 3334 491 
L 3334 0 
L 597 0 
z
" transform="scale(0.015625)"/>
       <path id="LucidaGrande-4d" d="M 597 0 
L 597 4625 
L 1506 4625 
L 2788 1047 
L 4106 4625 
L 4919 4625 
L 4919 0 
L 4306 0 
L 4306 3763 
L 3031 309 
L 2397 309 
L 1159 3772 
L 1159 0 
L 597 0 
z
" transform="scale(0.015625)"/>
       <path id="LucidaGrande-62" d="M 616 -38 
L 616 4934 
L 1231 4934 
L 1231 2756 
Q 1609 3469 2366 3469 
Q 2978 3469 3329 3022 
Q 3681 2575 3681 1800 
Q 3681 956 3282 439 
Q 2884 -78 2234 -78 
Q 1631 -78 1231 384 
L 1156 -38 
L 616 -38 
z
M 1231 809 
Q 1706 384 2138 384 
Q 3025 384 3025 1738 
Q 3025 2931 2238 2931 
Q 1722 2931 1231 2372 
L 1231 809 
z
" transform="scale(0.015625)"/>
       <path id="LucidaGrande-2c" d="M 625 -1003 
L 625 -772 
Q 925 -688 925 -63 
L 925 0 
L 625 0 
L 625 772 
L 1397 772 
L 1397 103 
Q 1397 -925 625 -1003 
z
" transform="scale(0.015625)"/>
      </defs>
      <use xlink:href="#LucidaGrande-4c"/>
      <use xlink:href="#LucidaGrande-69" x="53.320312"/>
      <use xlink:href="#LucidaGrande-70" x="82.226562"/>
      <use xlink:href="#LucidaGrande-69" x="145.166016"/>
      <use xlink:href="#LucidaGrande-64" x="174.072266"/>
      <use xlink:href="#LucidaGrande-20" x="237.011719"/>
      <use xlink:href="#LucidaGrande-4d" x="268.652344"/>
      <use xlink:href="#LucidaGrande-65" x="354.785156"/>
      <use xlink:href="#LucidaGrande-74" x="410.498047"/>
      <use xlink:href="#LucidaGrande-61" x="447.900391"/>
      <use xlink:href="#LucidaGrande-62" x="503.125"/>
      <use xlink:href="#LucidaGrande-6f" x="566.064453"/>
      <use xlink:href="#LucidaGrande-6c" x="627.490234"/>
      <use xlink:href="#LucidaGrande-69" x="656.396484"/>
      <use xlink:href="#LucidaGrande-73" x="685.302734"/>
      <use xlink:href="#LucidaGrande-6d" x="736.279297"/>
      <use xlink:href="#LucidaGrande-20" x="829.638672"/>
      <use xlink:href="#LucidaGrande-28" x="861.279297"/>
      <use xlink:href="#LucidaGrande-31" x="893.798828"/>
      <use xlink:href="#LucidaGrande-33" x="957.03125"/>
      <use xlink:href="#LucidaGrande-39" x="1020.263672"/>
      <use xlink:href="#LucidaGrande-31" x="1083.496094"/>
      <use xlink:href="#LucidaGrande-2c" x="1146.728516"/>
      <use xlink:href="#LucidaGrande-20" x="1178.369141"/>
      <use xlink:href="#LucidaGrande-34" x="1210.009766"/>
      <use xlink:href="#LucidaGrande-36" x="1273.242188"/>
      <use xlink:href="#LucidaGrande-2e" x="1336.474609"/>
      <use xlink:href="#LucidaGrande-38" x="1368.115234"/>
      <use xlink:href="#LucidaGrande-25" x="1431.347656"/>
      <use xlink:href="#LucidaGrande-29" x="1498.193359"/>
     </g>
    </g>
    <g id="patch_14">
     <path d="M 316.87375 257.183531 
L 336.87375 257.183531 
L 336.87375 250.183531 
L 316.87375 250.183531 
z
" style="fill: #ff7f0e"/>
    </g>
    <g id="text_12">
     <!-- Exchange/Transport (992, 33.4%) -->
     <g transform="translate(344.87375 257.183531) scale(0.1 -0.1)">
      <defs>
       <path id="LucidaGrande-68" d="M 616 0 
L 616 4934 
L 1231 4934 
L 1231 2756 
Q 1719 3469 2425 3469 
Q 2866 3469 3128 3189 
Q 3391 2909 3391 2438 
L 3391 0 
L 2775 0 
L 2775 2238 
Q 2775 2616 2664 2777 
Q 2553 2938 2297 2938 
Q 1731 2938 1231 2197 
L 1231 0 
L 616 0 
z
" transform="scale(0.015625)"/>
       <path id="LucidaGrande-67" d="M 628 -1128 
L 700 -594 
Q 1234 -847 1753 -847 
Q 2794 -847 2794 256 
L 2794 791 
Q 2453 78 1675 78 
Q 1066 78 706 522 
Q 347 966 347 1719 
Q 347 2494 756 2981 
Q 1166 3469 1816 3469 
Q 2384 3469 2794 3006 
L 2794 3394 
L 3413 3394 
L 3413 925 
Q 3413 128 3330 -255 
Q 3247 -638 3019 -881 
Q 2616 -1309 1766 -1309 
Q 1172 -1309 628 -1128 
z
M 2794 1175 
L 2794 2584 
Q 2388 3006 1909 3006 
Q 1484 3006 1243 2665 
Q 1003 2325 1003 1731 
Q 1003 616 1788 616 
Q 2322 616 2794 1175 
z
" transform="scale(0.015625)"/>
       <path id="LucidaGrande-2f" d="M 603 -925 
L 2269 4625 
L 2753 4625 
L 1088 -925 
L 603 -925 
z
" transform="scale(0.015625)"/>
       <path id="LucidaGrande-54" d="M 1697 0 
L 1697 4134 
L 56 4134 
L 56 4625 
L 3994 4625 
L 3994 4134 
L 2353 4134 
L 2353 0 
L 1697 0 
z
" transform="scale(0.015625)"/>
       <path id="LucidaGrande-72" d="M 616 0 
L 616 3394 
L 1231 3394 
L 1231 2756 
Q 1597 3469 2294 3469 
Q 2388 3469 2491 3453 
L 2491 2878 
Q 2331 2931 2209 2931 
Q 1625 2931 1231 2238 
L 1231 0 
L 616 0 
z
" transform="scale(0.015625)"/>
      </defs>
      <use xlink:href="#LucidaGrande-45"/>
      <use xlink:href="#LucidaGrande-78" x="54.199219"/>
      <use xlink:href="#LucidaGrande-63" x="115.527344"/>
      <use xlink:href="#LucidaGrande-68" x="166.748047"/>
      <use xlink:href="#LucidaGrande-61" x="228.808594"/>
      <use xlink:href="#LucidaGrande-6e" x="284.033203"/>
      <use xlink:href="#LucidaGrande-67" x="346.09375"/>
      <use xlink:href="#LucidaGrande-65" x="408.447266"/>
      <use xlink:href="#LucidaGrande-2f" x="464.160156"/>
      <use xlink:href="#LucidaGrande-54" x="516.601562"/>
      <use xlink:href="#LucidaGrande-72" x="579.833984"/>
      <use xlink:href="#LucidaGrande-61" x="620.751953"/>
      <use xlink:href="#LucidaGrande-6e" x="675.976562"/>
      <use xlink:href="#LucidaGrande-73" x="738.037109"/>
      <use xlink:href="#LucidaGrande-70" x="789.013672"/>
      <use xlink:href="#LucidaGrande-6f" x="851.953125"/>
      <use xlink:href="#LucidaGrande-72" x="913.378906"/>
      <use xlink:href="#LucidaGrande-74" x="954.296875"/>
      <use xlink:href="#LucidaGrande-20" x="991.699219"/>
      <use xlink:href="#LucidaGrande-28" x="1023.339844"/>
      <use xlink:href="#LucidaGrande-39" x="1055.859375"/>
      <use xlink:href="#LucidaGrande-39" x="1119.091797"/>
      <use xlink:href="#LucidaGrande-32" x="1182.324219"/>
      <use xlink:href="#LucidaGrande-2c" x="1245.556641"/>
      <use xlink:href="#LucidaGrande-20" x="1277.197266"/>
      <use xlink:href="#LucidaGrande-33" x="1308.837891"/>
      <use xlink:href="#LucidaGrande-33" x="1372.070312"/>
      <use xlink:href="#LucidaGrande-2e" x="1435.302734"/>
      <use xlink:href="#LucidaGrande-34" x="1466.943359"/>
      <use xlink:href="#LucidaGrande-25" x="1530.175781"/>
      <use xlink:href="#LucidaGrande-29" x="1597.021484"/>
     </g>
    </g>
    <g id="patch_15">
     <path d="M 316.87375 271.938219 
L 336.87375 271.938219 
L 336.87375 264.938219 
L 316.87375 264.938219 
z
" style="fill: #2ca02c"/>
    </g>
    <g id="text_13">
     <!-- Vitamin &amp; Cofactor Metabolism (180, 6.1%) -->
     <g transform="translate(344.87375 271.938219) scale(0.1 -0.1)">
      <defs>
       <path id="LucidaGrande-56" d="M 1859 0 
L 113 4625 
L 769 4625 
L 2200 838 
L 3581 4625 
L 4156 4625 
L 2478 0 
L 1859 0 
z
" transform="scale(0.015625)"/>
       <path id="LucidaGrande-26" d="M 3316 0 
L 3088 275 
Q 2575 -116 1891 -116 
Q 1166 -116 698 304 
Q 231 725 231 1375 
Q 231 2444 1359 2825 
Q 1047 3391 1047 3766 
Q 1047 4175 1373 4458 
Q 1700 4741 2166 4741 
Q 2616 4741 2908 4477 
Q 3200 4213 3200 3806 
Q 3200 3113 2184 2600 
Q 2650 1775 3269 1059 
Q 3553 1472 3553 2228 
L 3550 2459 
L 4163 2459 
Q 4163 1434 3550 691 
Q 3831 334 4191 0 
L 3316 0 
z
M 2819 631 
Q 2163 1438 1569 2459 
Q 847 2172 847 1525 
Q 847 1034 1180 690 
Q 1513 347 1991 347 
Q 2425 347 2819 631 
z
M 1959 2991 
Q 2622 3294 2622 3797 
Q 2622 4278 2141 4278 
Q 1666 4278 1666 3794 
Q 1666 3475 1959 2991 
z
" transform="scale(0.015625)"/>
       <path id="LucidaGrande-43" d="M 2578 -116 
Q 1500 -116 912 517 
Q 325 1150 325 2309 
Q 325 3466 923 4103 
Q 1522 4741 2609 4741 
Q 3231 4741 4066 4538 
L 4066 3922 
Q 3116 4250 2600 4250 
Q 1847 4250 1434 3740 
Q 1022 3231 1022 2303 
Q 1022 1419 1462 908 
Q 1903 397 2666 397 
Q 3322 397 4072 800 
L 4072 238 
Q 3388 -116 2578 -116 
z
" transform="scale(0.015625)"/>
       <path id="LucidaGrande-66" d="M 1350 2931 
L 1350 0 
L 731 0 
L 731 2931 
L 250 2931 
L 250 3394 
L 731 3394 
L 731 3800 
Q 731 5013 1838 5013 
Q 2147 5013 2541 4909 
L 2541 4422 
Q 2125 4550 1875 4550 
Q 1572 4550 1461 4404 
Q 1350 4259 1350 3866 
L 1350 3394 
L 2197 3394 
L 2197 2931 
L 1350 2931 
z
" transform="scale(0.015625)"/>
      </defs>
      <use xlink:href="#LucidaGrande-56"/>
      <use xlink:href="#LucidaGrande-69" x="65.380859"/>
      <use xlink:href="#LucidaGrande-74" x="94.287109"/>
      <use xlink:href="#LucidaGrande-61" x="131.689453"/>
      <use xlink:href="#LucidaGrande-6d" x="186.914062"/>
      <use xlink:href="#LucidaGrande-69" x="280.273438"/>
      <use xlink:href="#LucidaGrande-6e" x="309.179688"/>
      <use xlink:href="#LucidaGrande-20" x="371.240234"/>
      <use xlink:href="#LucidaGrande-26" x="402.880859"/>
      <use xlink:href="#LucidaGrande-20" x="472.607422"/>
      <use xlink:href="#LucidaGrande-43" x="504.248047"/>
      <use xlink:href="#LucidaGrande-6f" x="573.4375"/>
      <use xlink:href="#LucidaGrande-66" x="634.863281"/>
      <use xlink:href="#LucidaGrande-61" x="671.630859"/>
      <use xlink:href="#LucidaGrande-63" x="726.855469"/>
      <use xlink:href="#LucidaGrande-74" x="778.076172"/>
      <use xlink:href="#LucidaGrande-6f" x="815.478516"/>
      <use xlink:href="#LucidaGrande-72" x="876.904297"/>
      <use xlink:href="#LucidaGrande-20" x="917.822266"/>
      <use xlink:href="#LucidaGrande-4d" x="949.462891"/>
      <use xlink:href="#LucidaGrande-65" x="1035.595703"/>
      <use xlink:href="#LucidaGrande-74" x="1091.308594"/>
      <use xlink:href="#LucidaGrande-61" x="1128.710938"/>
      <use xlink:href="#LucidaGrande-62" x="1183.935547"/>
      <use xlink:href="#LucidaGrande-6f" x="1246.875"/>
      <use xlink:href="#LucidaGrande-6c" x="1308.300781"/>
      <use xlink:href="#LucidaGrande-69" x="1337.207031"/>
      <use xlink:href="#LucidaGrande-73" x="1366.113281"/>
      <use xlink:href="#LucidaGrande-6d" x="1417.089844"/>
      <use xlink:href="#LucidaGrande-20" x="1510.449219"/>
      <use xlink:href="#LucidaGrande-28" x="1542.089844"/>
      <use xlink:href="#LucidaGrande-31" x="1574.609375"/>
      <use xlink:href="#LucidaGrande-38" x="1637.841797"/>
      <use xlink:href="#LucidaGrande-30" x="1701.074219"/>
      <use xlink:href="#LucidaGrande-2c" x="1764.306641"/>
      <use xlink:href="#LucidaGrande-20" x="1795.947266"/>
      <use xlink:href="#LucidaGrande-36" x="1827.587891"/>
      <use xlink:href="#LucidaGrande-2e" x="1890.820312"/>
      <use xlink:href="#LucidaGrande-31" x="1922.460938"/>
      <use xlink:href="#LucidaGrande-25" x="1985.693359"/>
      <use xlink:href="#LucidaGrande-29" x="2052.539062"/>
     </g>
    </g>
    <g id="patch_16">
     <path d="M 316.87375 286.575719 
L 336.87375 286.575719 
L 336.87375 279.575719 
L 316.87375 279.575719 
z
" style="fill: #d62728"/>
    </g>
    <g id="text_14">
     <!-- Amino Acid Metabolism (115, 3.9%) -->
     <g transform="translate(344.87375 286.575719) scale(0.1 -0.1)">
      <defs>
       <path id="LucidaGrande-41" d="M 2941 1769 
L 2153 3763 
L 1363 1769 
L 2941 1769 
z
M 3634 0 
L 3131 1281 
L 1172 1281 
L 663 0 
L 53 0 
L 1888 4625 
L 2538 4625 
L 4344 0 
L 3634 0 
z
" transform="scale(0.015625)"/>
       <path id="LucidaGrande-35" d="M 778 -19 
L 778 531 
Q 1238 347 1653 347 
Q 2109 347 2370 615 
Q 2631 884 2631 1356 
Q 2631 2397 1197 2397 
Q 1034 2397 856 2375 
L 856 4625 
L 3197 4625 
L 3197 4088 
L 1397 4088 
L 1397 2869 
Q 2288 2869 2788 2459 
Q 3288 2050 3288 1325 
Q 3288 650 2833 267 
Q 2378 -116 1572 -116 
Q 1222 -116 778 -19 
z
" transform="scale(0.015625)"/>
      </defs>
      <use xlink:href="#LucidaGrande-41"/>
      <use xlink:href="#LucidaGrande-6d" x="68.994141"/>
      <use xlink:href="#LucidaGrande-69" x="162.353516"/>
      <use xlink:href="#LucidaGrande-6e" x="191.259766"/>
      <use xlink:href="#LucidaGrande-6f" x="253.320312"/>
      <use xlink:href="#LucidaGrande-20" x="314.746094"/>
      <use xlink:href="#LucidaGrande-41" x="346.386719"/>
      <use xlink:href="#LucidaGrande-63" x="415.380859"/>
      <use xlink:href="#LucidaGrande-69" x="466.601562"/>
      <use xlink:href="#LucidaGrande-64" x="495.507812"/>
      <use xlink:href="#LucidaGrande-20" x="558.447266"/>
      <use xlink:href="#LucidaGrande-4d" x="590.087891"/>
      <use xlink:href="#LucidaGrande-65" x="676.220703"/>
      <use xlink:href="#LucidaGrande-74" x="731.933594"/>
      <use xlink:href="#LucidaGrande-61" x="769.335938"/>
      <use xlink:href="#LucidaGrande-62" x="824.560547"/>
      <use xlink:href="#LucidaGrande-6f" x="887.5"/>
      <use xlink:href="#LucidaGrande-6c" x="948.925781"/>
      <use xlink:href="#LucidaGrande-69" x="977.832031"/>
      <use xlink:href="#LucidaGrande-73" x="1006.738281"/>
      <use xlink:href="#LucidaGrande-6d" x="1057.714844"/>
      <use xlink:href="#LucidaGrande-20" x="1151.074219"/>
      <use xlink:href="#LucidaGrande-28" x="1182.714844"/>
      <use xlink:href="#LucidaGrande-31" x="1215.234375"/>
      <use xlink:href="#LucidaGrande-31" x="1278.466797"/>
      <use xlink:href="#LucidaGrande-35" x="1341.699219"/>
      <use xlink:href="#LucidaGrande-2c" x="1404.931641"/>
      <use xlink:href="#LucidaGrande-20" x="1436.572266"/>
      <use xlink:href="#LucidaGrande-33" x="1468.212891"/>
      <use xlink:href="#LucidaGrande-2e" x="1531.445312"/>
      <use xlink:href="#LucidaGrande-39" x="1563.085938"/>
      <use xlink:href="#LucidaGrande-25" x="1626.318359"/>
      <use xlink:href="#LucidaGrande-29" x="1693.164062"/>
     </g>
    </g>
    <g id="patch_17">
     <path d="M 316.87375 301.213219 
L 336.87375 301.213219 
L 336.87375 294.213219 
L 316.87375 294.213219 
z
" style="fill: #9467bd"/>
    </g>
    <g id="text_15">
     <!-- Unassigned (94, 3.2%) -->
     <g transform="translate(344.87375 301.213219) scale(0.1 -0.1)">
      <defs>
       <path id="LucidaGrande-55" d="M 559 4625 
L 1216 4625 
L 1216 1706 
Q 1216 1009 1473 692 
Q 1731 375 2294 375 
Q 2844 375 3073 673 
Q 3303 972 3303 1684 
L 3303 4625 
L 3878 4625 
L 3878 1694 
Q 3878 747 3489 315 
Q 3100 -116 2250 -116 
Q 1384 -116 971 331 
Q 559 778 559 1713 
L 559 4625 
z
" transform="scale(0.015625)"/>
      </defs>
      <use xlink:href="#LucidaGrande-55"/>
      <use xlink:href="#LucidaGrande-6e" x="69.287109"/>
      <use xlink:href="#LucidaGrande-61" x="131.347656"/>
      <use xlink:href="#LucidaGrande-73" x="186.572266"/>
      <use xlink:href="#LucidaGrande-73" x="237.548828"/>
      <use xlink:href="#LucidaGrande-69" x="288.525391"/>
      <use xlink:href="#LucidaGrande-67" x="317.431641"/>
      <use xlink:href="#LucidaGrande-6e" x="379.785156"/>
      <use xlink:href="#LucidaGrande-65" x="441.845703"/>
      <use xlink:href="#LucidaGrande-64" x="497.558594"/>
      <use xlink:href="#LucidaGrande-20" x="560.498047"/>
      <use xlink:href="#LucidaGrande-28" x="592.138672"/>
      <use xlink:href="#LucidaGrande-39" x="624.658203"/>
      <use xlink:href="#LucidaGrande-34" x="687.890625"/>
      <use xlink:href="#LucidaGrande-2c" x="751.123047"/>
      <use xlink:href="#LucidaGrande-20" x="782.763672"/>
      <use xlink:href="#LucidaGrande-33" x="814.404297"/>
      <use xlink:href="#LucidaGrande-2e" x="877.636719"/>
      <use xlink:href="#LucidaGrande-32" x="909.277344"/>
      <use xlink:href="#LucidaGrande-25" x="972.509766"/>
      <use xlink:href="#LucidaGrande-29" x="1039.355469"/>
     </g>
    </g>
    <g id="patch_18">
     <path d="M 316.87375 315.967906 
L 336.87375 315.967906 
L 336.87375 308.967906 
L 316.87375 308.967906 
z
" style="fill: #8c564b"/>
    </g>
    <g id="text_16">
     <!-- Protein Product Synthesis (79, 2.7%) -->
     <g transform="translate(344.87375 315.967906) scale(0.1 -0.1)">
      <defs>
       <path id="LucidaGrande-50" d="M 597 0 
L 597 4625 
L 1856 4625 
Q 2694 4625 3059 4342 
Q 3425 4059 3425 3413 
Q 3425 2675 2925 2256 
Q 2425 1838 1538 1838 
L 1247 1838 
L 1247 0 
L 597 0 
z
M 1247 2334 
L 1513 2334 
Q 2097 2334 2415 2603 
Q 2734 2872 2734 3363 
Q 2734 3778 2484 3956 
Q 2234 4134 1650 4134 
L 1247 4134 
L 1247 2334 
z
" transform="scale(0.015625)"/>
       <path id="LucidaGrande-75" d="M 2738 0 
L 2738 638 
Q 2247 -78 1547 -78 
Q 1103 -78 840 201 
Q 578 481 578 956 
L 578 3394 
L 1194 3394 
L 1194 1156 
Q 1194 775 1305 614 
Q 1416 453 1675 453 
Q 2238 453 2738 1194 
L 2738 3394 
L 3353 3394 
L 3353 0 
L 2738 0 
z
" transform="scale(0.015625)"/>
      </defs>
      <use xlink:href="#LucidaGrande-50"/>
      <use xlink:href="#LucidaGrande-72" x="55.273438"/>
      <use xlink:href="#LucidaGrande-6f" x="96.191406"/>
      <use xlink:href="#LucidaGrande-74" x="157.617188"/>
      <use xlink:href="#LucidaGrande-65" x="195.019531"/>
      <use xlink:href="#LucidaGrande-69" x="250.732422"/>
      <use xlink:href="#LucidaGrande-6e" x="279.638672"/>
      <use xlink:href="#LucidaGrande-20" x="341.699219"/>
      <use xlink:href="#LucidaGrande-50" x="373.339844"/>
      <use xlink:href="#LucidaGrande-72" x="428.613281"/>
      <use xlink:href="#LucidaGrande-6f" x="469.53125"/>
      <use xlink:href="#LucidaGrande-64" x="530.957031"/>
      <use xlink:href="#LucidaGrande-75" x="593.896484"/>
      <use xlink:href="#LucidaGrande-63" x="655.957031"/>
      <use xlink:href="#LucidaGrande-74" x="707.177734"/>
      <use xlink:href="#LucidaGrande-20" x="744.580078"/>
      <use xlink:href="#LucidaGrande-53" x="776.220703"/>
      <use xlink:href="#LucidaGrande-79" x="830.078125"/>
      <use xlink:href="#LucidaGrande-6e" x="882.324219"/>
      <use xlink:href="#LucidaGrande-74" x="944.384766"/>
      <use xlink:href="#LucidaGrande-68" x="981.787109"/>
      <use xlink:href="#LucidaGrande-65" x="1043.847656"/>
      <use xlink:href="#LucidaGrande-73" x="1099.560547"/>
      <use xlink:href="#LucidaGrande-69" x="1150.537109"/>
      <use xlink:href="#LucidaGrande-73" x="1179.443359"/>
      <use xlink:href="#LucidaGrande-20" x="1230.419922"/>
      <use xlink:href="#LucidaGrande-28" x="1262.060547"/>
      <use xlink:href="#LucidaGrande-37" x="1294.580078"/>
      <use xlink:href="#LucidaGrande-39" x="1357.8125"/>
      <use xlink:href="#LucidaGrande-2c" x="1421.044922"/>
      <use xlink:href="#LucidaGrande-20" x="1452.685547"/>
      <use xlink:href="#LucidaGrande-32" x="1484.326172"/>
      <use xlink:href="#LucidaGrande-2e" x="1547.558594"/>
      <use xlink:href="#LucidaGrande-37" x="1579.199219"/>
      <use xlink:href="#LucidaGrande-25" x="1642.431641"/>
      <use xlink:href="#LucidaGrande-29" x="1709.277344"/>
     </g>
    </g>
    <g id="patch_19">
     <path d="M 316.87375 330.605406 
L 336.87375 330.605406 
L 336.87375 323.605406 
L 316.87375 323.605406 
z
" style="fill: #e377c2"/>
    </g>
    <g id="text_17">
     <!-- Other (65, 2.2%) -->
     <g transform="translate(344.87375 330.605406) scale(0.1 -0.1)">
      <defs>
       <path id="LucidaGrande-4f" d="M 2459 -116 
Q 1497 -116 911 551 
Q 325 1219 325 2316 
Q 325 3419 914 4080 
Q 1503 4741 2488 4741 
Q 3469 4741 4059 4081 
Q 4650 3422 4650 2322 
Q 4650 1200 4059 542 
Q 3469 -116 2459 -116 
z
M 2469 375 
Q 3178 375 3565 886 
Q 3953 1397 3953 2328 
Q 3953 3231 3564 3740 
Q 3175 4250 2488 4250 
Q 1797 4250 1409 3739 
Q 1022 3228 1022 2319 
Q 1022 1413 1406 894 
Q 1791 375 2469 375 
z
" transform="scale(0.015625)"/>
      </defs>
      <use xlink:href="#LucidaGrande-4f"/>
      <use xlink:href="#LucidaGrande-74" x="77.685547"/>
      <use xlink:href="#LucidaGrande-68" x="115.087891"/>
      <use xlink:href="#LucidaGrande-65" x="177.148438"/>
      <use xlink:href="#LucidaGrande-72" x="232.861328"/>
      <use xlink:href="#LucidaGrande-20" x="273.779297"/>
      <use xlink:href="#LucidaGrande-28" x="305.419922"/>
      <use xlink:href="#LucidaGrande-36" x="337.939453"/>
      <use xlink:href="#LucidaGrande-35" x="401.171875"/>
      <use xlink:href="#LucidaGrande-2c" x="464.404297"/>
      <use xlink:href="#LucidaGrande-20" x="496.044922"/>
      <use xlink:href="#LucidaGrande-32" x="527.685547"/>
      <use xlink:href="#LucidaGrande-2e" x="590.917969"/>
      <use xlink:href="#LucidaGrande-32" x="622.558594"/>
      <use xlink:href="#LucidaGrande-25" x="685.791016"/>
      <use xlink:href="#LucidaGrande-29" x="752.636719"/>
     </g>
    </g>
    <g id="patch_20">
     <path d="M 316.87375 345.242906 
L 336.87375 345.242906 
L 336.87375 338.242906 
L 316.87375 338.242906 
z
" style="fill: #7f7f7f"/>
    </g>
    <g id="text_18">
     <!-- Carbohydrates Metabolism (30, 1.0%) -->
     <g transform="translate(344.87375 345.242906) scale(0.1 -0.1)">
      <use xlink:href="#LucidaGrande-43"/>
      <use xlink:href="#LucidaGrande-61" x="69.189453"/>
      <use xlink:href="#LucidaGrande-72" x="124.414062"/>
      <use xlink:href="#LucidaGrande-62" x="165.332031"/>
      <use xlink:href="#LucidaGrande-6f" x="228.271484"/>
      <use xlink:href="#LucidaGrande-68" x="289.697266"/>
      <use xlink:href="#LucidaGrande-79" x="351.757812"/>
      <use xlink:href="#LucidaGrande-64" x="404.003906"/>
      <use xlink:href="#LucidaGrande-72" x="466.943359"/>
      <use xlink:href="#LucidaGrande-61" x="507.861328"/>
      <use xlink:href="#LucidaGrande-74" x="563.085938"/>
      <use xlink:href="#LucidaGrande-65" x="600.488281"/>
      <use xlink:href="#LucidaGrande-73" x="656.201172"/>
      <use xlink:href="#LucidaGrande-20" x="707.177734"/>
      <use xlink:href="#LucidaGrande-4d" x="738.818359"/>
      <use xlink:href="#LucidaGrande-65" x="824.951172"/>
      <use xlink:href="#LucidaGrande-74" x="880.664062"/>
      <use xlink:href="#LucidaGrande-61" x="918.066406"/>
      <use xlink:href="#LucidaGrande-62" x="973.291016"/>
      <use xlink:href="#LucidaGrande-6f" x="1036.230469"/>
      <use xlink:href="#LucidaGrande-6c" x="1097.65625"/>
      <use xlink:href="#LucidaGrande-69" x="1126.5625"/>
      <use xlink:href="#LucidaGrande-73" x="1155.46875"/>
      <use xlink:href="#LucidaGrande-6d" x="1206.445312"/>
      <use xlink:href="#LucidaGrande-20" x="1299.804688"/>
      <use xlink:href="#LucidaGrande-28" x="1331.445312"/>
      <use xlink:href="#LucidaGrande-33" x="1363.964844"/>
      <use xlink:href="#LucidaGrande-30" x="1427.197266"/>
      <use xlink:href="#LucidaGrande-2c" x="1490.429688"/>
      <use xlink:href="#LucidaGrande-20" x="1522.070312"/>
      <use xlink:href="#LucidaGrande-31" x="1553.710938"/>
      <use xlink:href="#LucidaGrande-2e" x="1616.943359"/>
      <use xlink:href="#LucidaGrande-30" x="1648.583984"/>
      <use xlink:href="#LucidaGrande-25" x="1711.816406"/>
      <use xlink:href="#LucidaGrande-29" x="1778.662109"/>
     </g>
    </g>
    <g id="patch_21">
     <path d="M 316.87375 359.880406 
L 336.87375 359.880406 
L 336.87375 352.880406 
L 316.87375 352.880406 
z
" style="fill: #bcbd22"/>
    </g>
    <g id="text_19">
     <!-- Nucleotide Metabolism (15, 0.5%) -->
     <g transform="translate(344.87375 359.880406) scale(0.1 -0.1)">
      <defs>
       <path id="LucidaGrande-4e" d="M 597 0 
L 597 4625 
L 1241 4625 
L 3569 1053 
L 3569 4625 
L 4131 4625 
L 4131 0 
L 3491 0 
L 1159 3572 
L 1159 0 
L 597 0 
z
" transform="scale(0.015625)"/>
      </defs>
      <use xlink:href="#LucidaGrande-4e"/>
      <use xlink:href="#LucidaGrande-75" x="73.876953"/>
      <use xlink:href="#LucidaGrande-63" x="135.9375"/>
      <use xlink:href="#LucidaGrande-6c" x="187.158203"/>
      <use xlink:href="#LucidaGrande-65" x="216.064453"/>
      <use xlink:href="#LucidaGrande-6f" x="271.777344"/>
      <use xlink:href="#LucidaGrande-74" x="333.203125"/>
      <use xlink:href="#LucidaGrande-69" x="370.605469"/>
      <use xlink:href="#LucidaGrande-64" x="399.511719"/>
      <use xlink:href="#LucidaGrande-65" x="462.451172"/>
      <use xlink:href="#LucidaGrande-20" x="518.164062"/>
      <use xlink:href="#LucidaGrande-4d" x="549.804688"/>
      <use xlink:href="#LucidaGrande-65" x="635.9375"/>
      <use xlink:href="#LucidaGrande-74" x="691.650391"/>
      <use xlink:href="#LucidaGrande-61" x="729.052734"/>
      <use xlink:href="#LucidaGrande-62" x="784.277344"/>
      <use xlink:href="#LucidaGrande-6f" x="847.216797"/>
      <use xlink:href="#LucidaGrande-6c" x="908.642578"/>
      <use xlink:href="#LucidaGrande-69" x="937.548828"/>
      <use xlink:href="#LucidaGrande-73" x="966.455078"/>
      <use xlink:href="#LucidaGrande-6d" x="1017.431641"/>
      <use xlink:href="#LucidaGrande-20" x="1110.791016"/>
      <use xlink:href="#LucidaGrande-28" x="1142.431641"/>
      <use xlink:href="#LucidaGrande-31" x="1174.951172"/>
      <use xlink:href="#LucidaGrande-35" x="1238.183594"/>
      <use xlink:href="#LucidaGrande-2c" x="1301.416016"/>
      <use xlink:href="#LucidaGrande-20" x="1333.056641"/>
      <use xlink:href="#LucidaGrande-30" x="1364.697266"/>
      <use xlink:href="#LucidaGrande-2e" x="1427.929688"/>
      <use xlink:href="#LucidaGrande-35" x="1459.570312"/>
      <use xlink:href="#LucidaGrande-25" x="1522.802734"/>
      <use xlink:href="#LucidaGrande-29" x="1589.648438"/>
     </g>
    </g>
    <g id="patch_22">
     <path d="M 316.87375 374.517906 
L 336.87375 374.517906 
L 336.87375 367.517906 
L 316.87375 367.517906 
z
" style="fill: #17becf"/>
    </g>
    <g id="text_20">
     <!-- Energy Metabolism (10, 0.3%) -->
     <g transform="translate(344.87375 374.517906) scale(0.1 -0.1)">
      <use xlink:href="#LucidaGrande-45"/>
      <use xlink:href="#LucidaGrande-6e" x="54.199219"/>
      <use xlink:href="#LucidaGrande-65" x="116.259766"/>
      <use xlink:href="#LucidaGrande-72" x="171.972656"/>
      <use xlink:href="#LucidaGrande-67" x="212.890625"/>
      <use xlink:href="#LucidaGrande-79" x="275.244141"/>
      <use xlink:href="#LucidaGrande-20" x="327.490234"/>
      <use xlink:href="#LucidaGrande-4d" x="359.130859"/>
      <use xlink:href="#LucidaGrande-65" x="445.263672"/>
      <use xlink:href="#LucidaGrande-74" x="500.976562"/>
      <use xlink:href="#LucidaGrande-61" x="538.378906"/>
      <use xlink:href="#LucidaGrande-62" x="593.603516"/>
      <use xlink:href="#LucidaGrande-6f" x="656.542969"/>
      <use xlink:href="#LucidaGrande-6c" x="717.96875"/>
      <use xlink:href="#LucidaGrande-69" x="746.875"/>
      <use xlink:href="#LucidaGrande-73" x="775.78125"/>
      <use xlink:href="#LucidaGrande-6d" x="826.757812"/>
      <use xlink:href="#LucidaGrande-20" x="920.117188"/>
      <use xlink:href="#LucidaGrande-28" x="951.757812"/>
      <use xlink:href="#LucidaGrande-31" x="984.277344"/>
      <use xlink:href="#LucidaGrande-30" x="1047.509766"/>
      <use xlink:href="#LucidaGrande-2c" x="1110.742188"/>
      <use xlink:href="#LucidaGrande-20" x="1142.382812"/>
      <use xlink:href="#LucidaGrande-30" x="1174.023438"/>
      <use xlink:href="#LucidaGrande-2e" x="1237.255859"/>
      <use xlink:href="#LucidaGrande-33" x="1268.896484"/>
      <use xlink:href="#LucidaGrande-25" x="1332.128906"/>
      <use xlink:href="#LucidaGrande-29" x="1398.974609"/>
     </g>
    </g>
   </g>
  </g>
 </g>
</svg>
