<?xml version="1.0" encoding="utf-8" standalone="no"?>
<!DOCTYPE svg PUBLIC "-//W3C//DTD SVG 1.1//EN"
  "http://www.w3.org/Graphics/SVG/1.1/DTD/svg11.dtd">
<svg xmlns:xlink="http://www.w3.org/1999/xlink" width="570.397125pt" height="564.697125pt" viewBox="0 0 570.397125 564.697125" xmlns="http://www.w3.org/2000/svg" version="1.1">
 <metadata>
  <rdf:RDF xmlns:dc="http://purl.org/dc/elements/1.1/" xmlns:cc="http://creativecommons.org/ns#" xmlns:rdf="http://www.w3.org/1999/02/22-rdf-syntax-ns#">
   <cc:Work>
    <dc:type rdf:resource="http://purl.org/dc/dcmitype/StillImage"/>
    <dc:date>2025-08-21T16:34:52.969089</dc:date>
    <dc:format>image/svg+xml</dc:format>
    <dc:creator>
     <cc:Agent>
      <dc:title>Matplotlib v3.7.1, https://matplotlib.org/</dc:title>
     </cc:Agent>
    </dc:creator>
   </cc:Work>
  </rdf:RDF>
 </metadata>
 <defs>
  <style type="text/css">*{stroke-linejoin: round; stroke-linecap: butt}</style>
 </defs>
 <g id="figure_1">
  <g id="patch_1">
   <path d="M 0 564.697125 
L 570.397125 564.697125 
L 570.397125 0 
L 0 0 
z
" style="fill: #ffffff"/>
  </g>
  <g id="axes_1">
   <g id="patch_2">
    <path d="M 143.491482 179.254977 
C 126.828651 179.254977 110.351209 182.765258 95.135173 189.556589 
C 79.919137 196.347921 66.303091 206.269183 55.176196 218.672495 
C 44.049301 231.075807 35.65915 245.685171 30.553641 261.546562 
C 25.448132 277.407952 23.740871 294.168424 25.543347 310.733478 
L 143.491482 297.899313 
z
" style="fill: #1f77b4"/>
   </g>
   <g id="patch_3">
    <path d="M 25.543347 310.733478 
C 28.475147 337.677214 40.552673 362.819575 59.75266 381.948633 
C 78.952647 401.077691 104.139536 413.062081 131.093938 415.894141 
L 143.491482 297.899313 
z
" style="fill: #ff7f0e"/>
   </g>
   <g id="patch_4">
    <path d="M 131.093938 415.894141 
C 139.586514 416.786444 148.15066 416.759275 156.637404 415.813109 
C 165.124148 414.866942 173.483996 413.007296 181.571529 410.266517 
L 143.491482 297.899313 
z
" style="fill: #2ca02c"/>
   </g>
   <g id="patch_5">
    <path d="M 181.571529 410.266517 
C 186.999979 408.426873 192.287991 406.196273 197.394008 403.592247 
C 202.500025 400.98822 207.410636 398.017606 212.087251 394.70375 
L 143.491482 297.899313 
z
" style="fill: #d62728"/>
   </g>
   <g id="patch_6">
    <path d="M 212.087251 394.70375 
C 216.046522 391.898204 219.829948 388.8524 223.416205 385.583503 
C 227.002461 382.314607 230.384797 378.828772 233.544148 375.145646 
L 143.491482 297.899313 
z
" style="fill: #9467bd"/>
   </g>
   <g id="patch_7">
    <path d="M 233.544148 375.145646 
C 236.458241 371.748438 239.177763 368.189051 241.689669 364.484556 
C 244.201576 360.780061 246.501845 356.936391 248.579444 352.971981 
L 143.491482 297.899313 
z
" style="fill: #8c564b"/>
   </g>
   <g id="patch_8">
    <path d="M 248.579444 352.971981 
C 250.404513 349.489441 252.055341 345.918331 253.525816 342.271871 
C 254.996291 338.625412 256.284596 334.90811 257.38596 331.133728 
L 143.491482 297.899313 
z
" style="fill: #e377c2"/>
   </g>
   <g id="patch_9">
    <path d="M 257.38596 331.133728 
C 258.452161 327.479852 259.341914 323.776784 260.05213 320.037375 
C 260.762347 316.297965 261.292205 312.526544 261.639865 308.736197 
L 143.491482 297.899313 
z
" style="fill: #7f7f7f"/>
   </g>
   <g id="patch_10">
    <path d="M 261.639865 308.736197 
C 261.872888 306.195686 262.023908 303.648319 262.09269 301.09807 
C 262.161472 298.547821 262.14798 295.996017 262.052235 293.446638 
L 143.491482 297.899313 
z
" style="fill: #bcbd22"/>
   </g>
   <g id="patch_11">
    <path d="M 262.052235 293.446638 
C 261.96434 291.106257 261.807165 288.768991 261.580918 286.437913 
C 261.35467 284.106836 261.05945 281.782968 260.695644 279.469366 
L 143.491482 297.899313 
z
" style="fill: #17becf"/>
   </g>
   <g id="patch_12">
    <path d="M 260.695644 279.469366 
C 260.338335 277.197083 259.915022 274.935672 259.42624 272.688 
C 258.937459 270.440328 258.383416 268.207346 257.764814 265.991884 
L 143.491482 297.899313 
z
" style="fill: #1f77b4"/>
   </g>
   <g id="patch_13">
    <path d="M 257.764814 265.991884 
C 257.258698 264.179276 256.709525 262.378967 256.117763 260.592485 
C 255.526 258.806003 254.891816 257.033853 254.215748 255.277541 
L 143.491482 297.899313 
z
" style="fill: #ff7f0e"/>
   </g>
   <g id="patch_14">
    <path d="M 254.215748 255.277541 
C 245.60371 232.904902 230.40977 213.659229 210.646698 200.090032 
C 190.883625 186.520835 167.464422 179.254976 143.491477 179.254977 
L 143.491482 297.899313 
z
" style="fill: #2ca02c"/>
   </g>
   <g id="matplotlib.axis_1"/>
   <g id="matplotlib.axis_2"/>
   <g id="text_1">
    <!-- 26.7% -->
    <g transform="translate(61.404705 241.658887) scale(0.11 -0.11)">
     <defs>
      <path id="LucidaGrande-32" d="M 531 0 
L 531 541 
Q 800 1169 1619 1909 
L 1972 2225 
Q 2653 2841 2653 3447 
Q 2653 3834 2420 4056 
Q 2188 4278 1781 4278 
Q 1300 4278 647 3906 
L 647 4450 
Q 1263 4741 1869 4741 
Q 2519 4741 2912 4391 
Q 3306 4041 3306 3463 
Q 3306 3047 3107 2725 
Q 2909 2403 2369 1944 
L 2131 1741 
Q 1391 1113 1275 541 
L 3284 541 
L 3284 0 
L 531 0 
z
" transform="scale(0.015625)"/>
      <path id="LucidaGrande-36" d="M 1100 2397 
Q 1541 2969 2209 2969 
Q 2816 2969 3202 2567 
Q 3588 2166 3588 1538 
Q 3588 816 3155 350 
Q 2722 -116 2056 -116 
Q 1291 -116 859 500 
Q 428 1116 428 2209 
Q 428 3413 923 4078 
Q 1419 4744 2319 4744 
Q 2731 4744 3350 4569 
L 3350 4031 
Q 2697 4281 2281 4281 
Q 1100 4281 1100 2397 
z
M 2969 1400 
Q 2969 1925 2733 2225 
Q 2497 2525 2078 2525 
Q 1688 2525 1406 2262 
Q 1125 2000 1125 1631 
Q 1125 1050 1392 698 
Q 1659 347 2100 347 
Q 2497 347 2733 633 
Q 2969 919 2969 1400 
z
" transform="scale(0.015625)"/>
      <path id="LucidaGrande-2e" d="M 625 0 
L 625 772 
L 1397 772 
L 1397 0 
L 625 0 
z
" transform="scale(0.015625)"/>
      <path id="LucidaGrande-37" d="M 963 0 
Q 1053 541 1220 934 
Q 1388 1328 1813 2016 
L 3075 4047 
L 694 4047 
L 694 4625 
L 3663 4625 
L 3663 4047 
Q 1884 1425 1672 0 
L 963 0 
z
" transform="scale(0.015625)"/>
      <path id="LucidaGrande-25" d="M 75 -116 
L 3719 4741 
L 4200 4741 
L 559 -116 
L 75 -116 
z
M 1006 2313 
Q 566 2313 302 2628 
Q 38 2944 38 3472 
Q 38 4003 303 4314 
Q 569 4625 1022 4625 
Q 1472 4625 1737 4314 
Q 2003 4003 2003 3475 
Q 2003 2934 1737 2623 
Q 1472 2313 1006 2313 
z
M 1016 2622 
Q 1541 2622 1541 3475 
Q 1541 3859 1400 4089 
Q 1259 4319 1022 4319 
Q 781 4319 640 4089 
Q 500 3859 500 3472 
Q 500 3084 640 2853 
Q 781 2622 1016 2622 
z
M 3244 0 
Q 2800 0 2537 314 
Q 2275 628 2275 1156 
Q 2275 1688 2540 2000 
Q 2806 2313 3256 2313 
Q 3706 2313 3973 2002 
Q 4241 1691 4241 1163 
Q 4241 619 3975 309 
Q 3709 0 3244 0 
z
M 3250 309 
Q 3778 309 3778 1163 
Q 3778 1547 3636 1776 
Q 3494 2006 3256 2006 
Q 3019 2006 2878 1776 
Q 2738 1547 2738 1156 
Q 2738 772 2877 540 
Q 3016 309 3250 309 
z
" transform="scale(0.015625)"/>
     </defs>
     <use xlink:href="#LucidaGrande-32"/>
     <use xlink:href="#LucidaGrande-36" x="63.232422"/>
     <use xlink:href="#LucidaGrande-2e" x="126.464844"/>
     <use xlink:href="#LucidaGrande-37" x="158.105469"/>
     <use xlink:href="#LucidaGrande-25" x="221.337891"/>
    </g>
   </g>
   <g id="text_2">
    <!-- 21.6% -->
    <g transform="translate(64.837053 364.115991) scale(0.11 -0.11)">
     <defs>
      <path id="LucidaGrande-31" d="M 963 0 
L 963 463 
L 1888 463 
L 1888 4113 
L 963 3881 
L 963 4356 
L 2506 4741 
L 2506 463 
L 3431 463 
L 3431 0 
L 963 0 
z
" transform="scale(0.015625)"/>
     </defs>
     <use xlink:href="#LucidaGrande-32"/>
     <use xlink:href="#LucidaGrande-31" x="63.232422"/>
     <use xlink:href="#LucidaGrande-2e" x="126.464844"/>
     <use xlink:href="#LucidaGrande-36" x="158.105469"/>
     <use xlink:href="#LucidaGrande-25" x="221.337891"/>
    </g>
   </g>
   <g id="text_3">
    <!-- 6.9% -->
    <g transform="translate(140.978502 389.514347) scale(0.11 -0.11)">
     <defs>
      <path id="LucidaGrande-39" d="M 728 28 
L 728 550 
Q 1316 347 1728 347 
Q 2303 347 2626 836 
Q 2950 1325 2950 2197 
Q 2481 1619 1884 1619 
Q 1300 1619 894 2048 
Q 488 2478 488 3097 
Q 488 3806 920 4273 
Q 1353 4741 2009 4741 
Q 2763 4741 3197 4136 
Q 3631 3531 3631 2481 
Q 3631 1288 3101 586 
Q 2572 -116 1669 -116 
Q 1306 -116 728 28 
z
M 1103 3219 
Q 1103 2681 1342 2372 
Q 1581 2063 1997 2063 
Q 2388 2063 2664 2328 
Q 2941 2594 2941 2969 
Q 2941 3559 2673 3920 
Q 2406 4281 1972 4281 
Q 1569 4281 1336 3995 
Q 1103 3709 1103 3219 
z
" transform="scale(0.015625)"/>
     </defs>
     <use xlink:href="#LucidaGrande-36"/>
     <use xlink:href="#LucidaGrande-2e" x="63.232422"/>
     <use xlink:href="#LucidaGrande-39" x="94.873047"/>
     <use xlink:href="#LucidaGrande-25" x="158.105469"/>
    </g>
   </g>
   <g id="text_4">
    <!-- 4.6% -->
    <g transform="translate(171.545955 380.348701) scale(0.11 -0.11)">
     <defs>
      <path id="LucidaGrande-34" d="M 2409 0 
L 2409 1309 
L 328 1309 
L 328 1775 
L 2409 4625 
L 2988 4625 
L 2988 1813 
L 3606 1813 
L 3606 1309 
L 2988 1309 
L 2988 0 
L 2409 0 
z
M 931 1813 
L 2450 1813 
L 2450 3869 
L 931 1813 
z
" transform="scale(0.015625)"/>
     </defs>
     <use xlink:href="#LucidaGrande-34"/>
     <use xlink:href="#LucidaGrande-2e" x="63.232422"/>
     <use xlink:href="#LucidaGrande-36" x="94.873047"/>
     <use xlink:href="#LucidaGrande-25" x="158.105469"/>
    </g>
   </g>
   <g id="text_5">
    <!-- 3.9% -->
    <g transform="translate(191.062602 366.842143) scale(0.11 -0.11)">
     <defs>
      <path id="LucidaGrande-33" d="M 650 34 
L 650 609 
Q 1313 347 1694 347 
Q 2134 347 2411 605 
Q 2688 863 2688 1272 
Q 2688 2247 1322 2247 
L 1078 2247 
L 1078 2663 
L 1294 2666 
Q 2575 2666 2575 3569 
Q 2575 4278 1731 4278 
Q 1269 4278 713 4019 
L 713 4556 
Q 1259 4741 1775 4741 
Q 3194 4741 3194 3669 
Q 3194 2853 2228 2506 
Q 3347 2247 3347 1281 
Q 3347 628 2915 256 
Q 2484 -116 1731 -116 
Q 1303 -116 650 34 
z
" transform="scale(0.015625)"/>
     </defs>
     <use xlink:href="#LucidaGrande-33"/>
     <use xlink:href="#LucidaGrande-2e" x="63.232422"/>
     <use xlink:href="#LucidaGrande-39" x="94.873047"/>
     <use xlink:href="#LucidaGrande-25" x="158.105469"/>
    </g>
   </g>
   <g id="text_6">
    <!-- 3.6% -->
    <g transform="translate(204.767701 351.017933) scale(0.11 -0.11)">
     <use xlink:href="#LucidaGrande-33"/>
     <use xlink:href="#LucidaGrande-2e" x="63.232422"/>
     <use xlink:href="#LucidaGrande-36" x="94.873047"/>
     <use xlink:href="#LucidaGrande-25" x="158.105469"/>
    </g>
   </g>
   <g id="text_7">
    <!-- 3.2% -->
    <g transform="translate(213.64481 334.358419) scale(0.11 -0.11)">
     <use xlink:href="#LucidaGrande-33"/>
     <use xlink:href="#LucidaGrande-2e" x="63.232422"/>
     <use xlink:href="#LucidaGrande-32" x="94.873047"/>
     <use xlink:href="#LucidaGrande-25" x="158.105469"/>
    </g>
   </g>
   <g id="text_8">
    <!-- 3.1% -->
    <g transform="translate(218.539546 317.682547) scale(0.11 -0.11)">
     <use xlink:href="#LucidaGrande-33"/>
     <use xlink:href="#LucidaGrande-2e" x="63.232422"/>
     <use xlink:href="#LucidaGrande-31" x="94.873047"/>
     <use xlink:href="#LucidaGrande-25" x="158.105469"/>
    </g>
   </g>
   <g id="text_9">
    <!-- 2.1% -->
    <g transform="translate(220.069966 303.478068) scale(0.11 -0.11)">
     <use xlink:href="#LucidaGrande-32"/>
     <use xlink:href="#LucidaGrande-2e" x="63.232422"/>
     <use xlink:href="#LucidaGrande-31" x="94.873047"/>
     <use xlink:href="#LucidaGrande-25" x="158.105469"/>
    </g>
   </g>
   <g id="text_10">
    <!-- 19.2% -->
    <g transform="translate(178.007581 227.72204) scale(0.11 -0.11)">
     <use xlink:href="#LucidaGrande-31"/>
     <use xlink:href="#LucidaGrande-39" x="63.232422"/>
     <use xlink:href="#LucidaGrande-2e" x="126.464844"/>
     <use xlink:href="#LucidaGrande-32" x="158.105469"/>
     <use xlink:href="#LucidaGrande-25" x="221.337891"/>
    </g>
   </g>
   <g id="text_11">
    <!-- Recon3D Subsystems (Top 12 + Other) -->
    <g transform="translate(7.2 18.3015) scale(0.144 -0.144)">
     <defs>
      <path id="LucidaGrande-52" d="M 597 0 
L 597 4625 
L 1997 4625 
Q 2663 4625 3017 4331 
Q 3372 4038 3372 3478 
Q 3372 2553 2438 2166 
L 3981 0 
L 3175 0 
L 1859 1956 
L 1247 1956 
L 1247 0 
L 597 0 
z
M 1247 2447 
L 1459 2447 
Q 2697 2447 2697 3419 
Q 2697 4134 1659 4134 
L 1247 4134 
L 1247 2447 
z
" transform="scale(0.015625)"/>
      <path id="LucidaGrande-65" d="M 3103 109 
Q 2484 -78 2044 -78 
Q 1294 -78 820 420 
Q 347 919 347 1713 
Q 347 2484 764 2978 
Q 1181 3472 1831 3472 
Q 2447 3472 2783 3034 
Q 3119 2597 3119 1791 
L 3116 1600 
L 975 1600 
Q 1109 391 2159 391 
Q 2544 391 3103 597 
L 3103 109 
z
M 1003 2063 
L 2500 2063 
Q 2500 3009 1794 3009 
Q 1084 3009 1003 2063 
z
" transform="scale(0.015625)"/>
      <path id="LucidaGrande-63" d="M 1941 -78 
Q 1253 -78 800 431 
Q 347 941 347 1716 
Q 347 2544 795 3006 
Q 1244 3469 2047 3469 
Q 2444 3469 2934 3359 
L 2934 2844 
Q 2413 2997 2084 2997 
Q 1613 2997 1327 2642 
Q 1041 2288 1041 1697 
Q 1041 1125 1334 772 
Q 1628 419 2103 419 
Q 2525 419 2972 634 
L 2972 103 
Q 2375 -78 1941 -78 
z
" transform="scale(0.015625)"/>
      <path id="LucidaGrande-6f" d="M 1944 -78 
Q 1216 -78 781 405 
Q 347 888 347 1697 
Q 347 2516 783 2992 
Q 1219 3469 1966 3469 
Q 2713 3469 3148 2992 
Q 3584 2516 3584 1703 
Q 3584 872 3146 397 
Q 2709 -78 1944 -78 
z
M 1953 384 
Q 2931 384 2931 1703 
Q 2931 3006 1966 3006 
Q 1003 3006 1003 1697 
Q 1003 384 1953 384 
z
" transform="scale(0.015625)"/>
      <path id="LucidaGrande-6e" d="M 616 0 
L 616 3394 
L 1231 3394 
L 1231 2756 
Q 1719 3469 2425 3469 
Q 2866 3469 3128 3189 
Q 3391 2909 3391 2438 
L 3391 0 
L 2775 0 
L 2775 2238 
Q 2775 2616 2664 2777 
Q 2553 2938 2297 2938 
Q 1731 2938 1231 2197 
L 1231 0 
L 616 0 
z
" transform="scale(0.015625)"/>
      <path id="LucidaGrande-44" d="M 597 0 
L 597 4625 
L 2134 4625 
Q 2822 4625 3245 4472 
Q 3669 4319 3978 3953 
Q 4469 3372 4469 2422 
Q 4469 1269 3859 634 
Q 3250 0 2144 0 
L 597 0 
z
M 1253 491 
L 2094 491 
Q 2994 491 3369 975 
Q 3772 1491 3772 2359 
Q 3772 3175 3375 3641 
Q 3134 3925 2800 4029 
Q 2466 4134 1794 4134 
L 1253 4134 
L 1253 491 
z
" transform="scale(0.015625)"/>
      <path id="LucidaGrande-20" transform="scale(0.015625)"/>
      <path id="LucidaGrande-53" d="M 1503 -116 
Q 1038 -116 313 88 
L 313 738 
Q 1094 375 1597 375 
Q 1984 375 2220 578 
Q 2456 781 2456 1113 
Q 2456 1384 2301 1575 
Q 2147 1766 1731 2000 
L 1413 2184 
Q 822 2522 580 2820 
Q 338 3119 338 3516 
Q 338 4050 725 4395 
Q 1113 4741 1713 4741 
Q 2247 4741 2841 4563 
L 2841 3963 
Q 2109 4250 1750 4250 
Q 1409 4250 1187 4069 
Q 966 3888 966 3613 
Q 966 3381 1128 3203 
Q 1291 3025 1722 2778 
L 2053 2591 
Q 2653 2250 2890 1947 
Q 3128 1644 3128 1219 
Q 3128 616 2683 250 
Q 2238 -116 1503 -116 
z
" transform="scale(0.015625)"/>
      <path id="LucidaGrande-75" d="M 2738 0 
L 2738 638 
Q 2247 -78 1547 -78 
Q 1103 -78 840 201 
Q 578 481 578 956 
L 578 3394 
L 1194 3394 
L 1194 1156 
Q 1194 775 1305 614 
Q 1416 453 1675 453 
Q 2238 453 2738 1194 
L 2738 3394 
L 3353 3394 
L 3353 0 
L 2738 0 
z
" transform="scale(0.015625)"/>
      <path id="LucidaGrande-62" d="M 616 -38 
L 616 4934 
L 1231 4934 
L 1231 2756 
Q 1609 3469 2366 3469 
Q 2978 3469 3329 3022 
Q 3681 2575 3681 1800 
Q 3681 956 3282 439 
Q 2884 -78 2234 -78 
Q 1631 -78 1231 384 
L 1156 -38 
L 616 -38 
z
M 1231 809 
Q 1706 384 2138 384 
Q 3025 384 3025 1738 
Q 3025 2931 2238 2931 
Q 1722 2931 1231 2372 
L 1231 809 
z
" transform="scale(0.015625)"/>
      <path id="LucidaGrande-73" d="M 1516 -78 
Q 1094 -78 491 119 
L 491 684 
Q 1094 384 1541 384 
Q 1806 384 1981 528 
Q 2156 672 2156 888 
Q 2156 1203 1666 1409 
L 1306 1563 
Q 509 1894 509 2516 
Q 509 2959 823 3214 
Q 1138 3469 1684 3469 
Q 1969 3469 2388 3391 
L 2516 3366 
L 2516 2853 
Q 2000 3006 1697 3006 
Q 1103 3006 1103 2575 
Q 1103 2297 1553 2106 
L 1850 1981 
Q 2353 1769 2562 1533 
Q 2772 1297 2772 944 
Q 2772 497 2419 209 
Q 2066 -78 1516 -78 
z
" transform="scale(0.015625)"/>
      <path id="LucidaGrande-79" d="M 813 -1234 
L 1363 0 
L 50 3394 
L 716 3394 
L 1688 838 
L 2725 3394 
L 3306 3394 
L 1453 -1234 
L 813 -1234 
z
" transform="scale(0.015625)"/>
      <path id="LucidaGrande-74" d="M 1634 -78 
Q 1166 -78 903 190 
Q 641 459 641 938 
L 641 2931 
L 216 2931 
L 216 3394 
L 641 3394 
L 641 4009 
L 1256 4069 
L 1256 3394 
L 2144 3394 
L 2144 2931 
L 1256 2931 
L 1256 1050 
Q 1256 384 1831 384 
Q 1953 384 2128 425 
L 2128 0 
Q 1844 -78 1634 -78 
z
" transform="scale(0.015625)"/>
      <path id="LucidaGrande-6d" d="M 616 0 
L 616 3394 
L 1231 3394 
L 1231 2756 
Q 1681 3469 2388 3469 
Q 3069 3469 3316 2756 
Q 3753 3472 4453 3472 
Q 4903 3472 5150 3208 
Q 5397 2944 5397 2469 
L 5397 0 
L 4778 0 
L 4778 2372 
Q 4778 2953 4319 2953 
Q 3841 2953 3316 2275 
L 3316 0 
L 2697 0 
L 2697 2372 
Q 2697 2956 2228 2956 
Q 1763 2956 1231 2275 
L 1231 0 
L 616 0 
z
" transform="scale(0.015625)"/>
      <path id="LucidaGrande-28" d="M 1850 -500 
L 1850 -925 
Q 1175 -466 779 323 
Q 384 1113 384 2006 
Q 384 2897 779 3686 
Q 1175 4475 1850 4934 
L 1850 4509 
Q 1391 4009 1195 3434 
Q 1000 2859 1000 2006 
Q 1000 1150 1195 575 
Q 1391 0 1850 -500 
z
" transform="scale(0.015625)"/>
      <path id="LucidaGrande-54" d="M 1697 0 
L 1697 4134 
L 56 4134 
L 56 4625 
L 3994 4625 
L 3994 4134 
L 2353 4134 
L 2353 0 
L 1697 0 
z
" transform="scale(0.015625)"/>
      <path id="LucidaGrande-70" d="M 616 -1234 
L 616 3394 
L 1231 3394 
L 1231 2756 
Q 1609 3469 2366 3469 
Q 2978 3469 3329 3022 
Q 3681 2575 3681 1800 
Q 3681 956 3282 439 
Q 2884 -78 2234 -78 
Q 1631 -78 1231 384 
L 1231 -1234 
L 616 -1234 
z
M 1231 809 
Q 1706 384 2138 384 
Q 3025 384 3025 1738 
Q 3025 2931 2238 2931 
Q 1722 2931 1231 2372 
L 1231 809 
z
" transform="scale(0.015625)"/>
      <path id="LucidaGrande-2b" d="M 2313 0 
L 2313 1619 
L 694 1619 
L 694 2081 
L 2313 2081 
L 2313 3700 
L 2775 3700 
L 2775 2081 
L 4394 2081 
L 4394 1619 
L 2775 1619 
L 2775 0 
L 2313 0 
z
" transform="scale(0.015625)"/>
      <path id="LucidaGrande-4f" d="M 2459 -116 
Q 1497 -116 911 551 
Q 325 1219 325 2316 
Q 325 3419 914 4080 
Q 1503 4741 2488 4741 
Q 3469 4741 4059 4081 
Q 4650 3422 4650 2322 
Q 4650 1200 4059 542 
Q 3469 -116 2459 -116 
z
M 2469 375 
Q 3178 375 3565 886 
Q 3953 1397 3953 2328 
Q 3953 3231 3564 3740 
Q 3175 4250 2488 4250 
Q 1797 4250 1409 3739 
Q 1022 3228 1022 2319 
Q 1022 1413 1406 894 
Q 1791 375 2469 375 
z
" transform="scale(0.015625)"/>
      <path id="LucidaGrande-68" d="M 616 0 
L 616 4934 
L 1231 4934 
L 1231 2756 
Q 1719 3469 2425 3469 
Q 2866 3469 3128 3189 
Q 3391 2909 3391 2438 
L 3391 0 
L 2775 0 
L 2775 2238 
Q 2775 2616 2664 2777 
Q 2553 2938 2297 2938 
Q 1731 2938 1231 2197 
L 1231 0 
L 616 0 
z
" transform="scale(0.015625)"/>
      <path id="LucidaGrande-72" d="M 616 0 
L 616 3394 
L 1231 3394 
L 1231 2756 
Q 1597 3469 2294 3469 
Q 2388 3469 2491 3453 
L 2491 2878 
Q 2331 2931 2209 2931 
Q 1625 2931 1231 2238 
L 1231 0 
L 616 0 
z
" transform="scale(0.015625)"/>
      <path id="LucidaGrande-29" d="M 231 -500 
L 231 -925 
Q 906 -466 1301 323 
Q 1697 1113 1697 2006 
Q 1697 2897 1301 3686 
Q 906 4475 231 4934 
L 231 4509 
Q 691 4009 886 3434 
Q 1081 2859 1081 2006 
Q 1081 1150 886 575 
Q 691 0 231 -500 
z
" transform="scale(0.015625)"/>
     </defs>
     <use xlink:href="#LucidaGrande-52"/>
     <use xlink:href="#LucidaGrande-65" x="63.232422"/>
     <use xlink:href="#LucidaGrande-63" x="118.945312"/>
     <use xlink:href="#LucidaGrande-6f" x="170.166016"/>
     <use xlink:href="#LucidaGrande-6e" x="231.591797"/>
     <use xlink:href="#LucidaGrande-33" x="293.652344"/>
     <use xlink:href="#LucidaGrande-44" x="356.884766"/>
     <use xlink:href="#LucidaGrande-20" x="431.787109"/>
     <use xlink:href="#LucidaGrande-53" x="463.427734"/>
     <use xlink:href="#LucidaGrande-75" x="517.285156"/>
     <use xlink:href="#LucidaGrande-62" x="579.345703"/>
     <use xlink:href="#LucidaGrande-73" x="642.285156"/>
     <use xlink:href="#LucidaGrande-79" x="693.261719"/>
     <use xlink:href="#LucidaGrande-73" x="745.507812"/>
     <use xlink:href="#LucidaGrande-74" x="796.484375"/>
     <use xlink:href="#LucidaGrande-65" x="833.886719"/>
     <use xlink:href="#LucidaGrande-6d" x="889.599609"/>
     <use xlink:href="#LucidaGrande-73" x="982.958984"/>
     <use xlink:href="#LucidaGrande-20" x="1033.935547"/>
     <use xlink:href="#LucidaGrande-28" x="1065.576172"/>
     <use xlink:href="#LucidaGrande-54" x="1098.095703"/>
     <use xlink:href="#LucidaGrande-6f" x="1161.328125"/>
     <use xlink:href="#LucidaGrande-70" x="1222.753906"/>
     <use xlink:href="#LucidaGrande-20" x="1285.693359"/>
     <use xlink:href="#LucidaGrande-31" x="1317.333984"/>
     <use xlink:href="#LucidaGrande-32" x="1380.566406"/>
     <use xlink:href="#LucidaGrande-20" x="1443.798828"/>
     <use xlink:href="#LucidaGrande-2b" x="1475.439453"/>
     <use xlink:href="#LucidaGrande-20" x="1554.931641"/>
     <use xlink:href="#LucidaGrande-4f" x="1586.572266"/>
     <use xlink:href="#LucidaGrande-74" x="1664.257812"/>
     <use xlink:href="#LucidaGrande-68" x="1701.660156"/>
     <use xlink:href="#LucidaGrande-65" x="1763.720703"/>
     <use xlink:href="#LucidaGrande-72" x="1819.433594"/>
     <use xlink:href="#LucidaGrande-29" x="1860.351562"/>
    </g>
   </g>
   <g id="legend_1">
    <g id="patch_15">
     <path d="M 281.00025 402.343688 
L 561.197125 402.343688 
Q 563.197125 402.343688 563.197125 400.343688 
L 563.197125 195.454938 
Q 563.197125 193.454938 561.197125 193.454938 
L 281.00025 193.454938 
Q 279.00025 193.454938 279.00025 195.454938 
L 279.00025 400.343688 
Q 279.00025 402.343688 281.00025 402.343688 
z
" style="fill: #ffffff; opacity: 0.8; stroke: #cccccc; stroke-linejoin: miter"/>
    </g>
    <g id="text_12">
     <!-- Subsystems -->
     <g transform="translate(389.718609 205.93525) scale(0.11 -0.11)">
      <use xlink:href="#LucidaGrande-53"/>
      <use xlink:href="#LucidaGrande-75" x="53.857422"/>
      <use xlink:href="#LucidaGrande-62" x="115.917969"/>
      <use xlink:href="#LucidaGrande-73" x="178.857422"/>
      <use xlink:href="#LucidaGrande-79" x="229.833984"/>
      <use xlink:href="#LucidaGrande-73" x="282.080078"/>
      <use xlink:href="#LucidaGrande-74" x="333.056641"/>
      <use xlink:href="#LucidaGrande-65" x="370.458984"/>
      <use xlink:href="#LucidaGrande-6d" x="426.171875"/>
      <use xlink:href="#LucidaGrande-73" x="519.53125"/>
     </g>
    </g>
    <g id="patch_16">
     <path d="M 283.00025 220.765563 
L 303.00025 220.765563 
L 303.00025 213.765563 
L 283.00025 213.765563 
z
" style="fill: #1f77b4"/>
    </g>
    <g id="text_13">
     <!-- FATTY ACID METABOLISM (794, 26.7%) -->
     <g transform="translate(311.00025 220.765563) scale(0.1 -0.1)">
      <defs>
       <path id="LucidaGrande-46" d="M 597 0 
L 597 4625 
L 3181 4625 
L 3181 4134 
L 1253 4134 
L 1253 2584 
L 2872 2584 
L 2872 2100 
L 1253 2100 
L 1253 0 
L 597 0 
z
" transform="scale(0.015625)"/>
       <path id="LucidaGrande-41" d="M 2941 1769 
L 2153 3763 
L 1363 1769 
L 2941 1769 
z
M 3634 0 
L 3131 1281 
L 1172 1281 
L 663 0 
L 53 0 
L 1888 4625 
L 2538 4625 
L 4344 0 
L 3634 0 
z
" transform="scale(0.015625)"/>
       <path id="LucidaGrande-59" d="M 1597 0 
L 1597 1931 
L 53 4625 
L 803 4625 
L 2003 2538 
L 3297 4625 
L 3906 4625 
L 2253 1944 
L 2253 0 
L 1597 0 
z
" transform="scale(0.015625)"/>
       <path id="LucidaGrande-43" d="M 2578 -116 
Q 1500 -116 912 517 
Q 325 1150 325 2309 
Q 325 3466 923 4103 
Q 1522 4741 2609 4741 
Q 3231 4741 4066 4538 
L 4066 3922 
Q 3116 4250 2600 4250 
Q 1847 4250 1434 3740 
Q 1022 3231 1022 2303 
Q 1022 1419 1462 908 
Q 1903 397 2666 397 
Q 3322 397 4072 800 
L 4072 238 
Q 3388 -116 2578 -116 
z
" transform="scale(0.015625)"/>
       <path id="LucidaGrande-49" d="M 594 0 
L 594 4625 
L 1250 4625 
L 1250 0 
L 594 0 
z
" transform="scale(0.015625)"/>
       <path id="LucidaGrande-4d" d="M 597 0 
L 597 4625 
L 1506 4625 
L 2788 1047 
L 4106 4625 
L 4919 4625 
L 4919 0 
L 4306 0 
L 4306 3763 
L 3031 309 
L 2397 309 
L 1159 3772 
L 1159 0 
L 597 0 
z
" transform="scale(0.015625)"/>
       <path id="LucidaGrande-45" d="M 597 0 
L 597 4625 
L 3181 4625 
L 3181 4134 
L 1253 4134 
L 1253 2650 
L 2869 2650 
L 2869 2166 
L 1253 2166 
L 1253 491 
L 3316 491 
L 3316 0 
L 597 0 
z
" transform="scale(0.015625)"/>
       <path id="LucidaGrande-42" d="M 597 0 
L 597 4625 
L 1797 4625 
Q 2491 4625 2861 4362 
Q 3231 4100 3231 3606 
Q 3231 2766 2281 2409 
Q 3416 2063 3416 1156 
Q 3416 594 3041 297 
Q 2666 0 1959 0 
L 597 0 
z
M 1247 491 
L 1381 491 
Q 2103 491 2316 581 
Q 2722 753 2722 1219 
Q 2722 1631 2353 1904 
Q 1984 2178 1431 2178 
L 1247 2178 
L 1247 491 
z
M 1247 2594 
L 1456 2594 
Q 1981 2594 2270 2819 
Q 2559 3044 2559 3453 
Q 2559 4134 1503 4134 
L 1247 4134 
L 1247 2594 
z
" transform="scale(0.015625)"/>
       <path id="LucidaGrande-4c" d="M 597 0 
L 597 4625 
L 1253 4625 
L 1253 491 
L 3334 491 
L 3334 0 
L 597 0 
z
" transform="scale(0.015625)"/>
       <path id="LucidaGrande-2c" d="M 625 -1003 
L 625 -772 
Q 925 -688 925 -63 
L 925 0 
L 625 0 
L 625 772 
L 1397 772 
L 1397 103 
Q 1397 -925 625 -1003 
z
" transform="scale(0.015625)"/>
      </defs>
      <use xlink:href="#LucidaGrande-46"/>
      <use xlink:href="#LucidaGrande-41" x="53.613281"/>
      <use xlink:href="#LucidaGrande-54" x="122.607422"/>
      <use xlink:href="#LucidaGrande-54" x="185.839844"/>
      <use xlink:href="#LucidaGrande-59" x="249.072266"/>
      <use xlink:href="#LucidaGrande-20" x="311.376953"/>
      <use xlink:href="#LucidaGrande-41" x="343.017578"/>
      <use xlink:href="#LucidaGrande-43" x="412.011719"/>
      <use xlink:href="#LucidaGrande-49" x="481.201172"/>
      <use xlink:href="#LucidaGrande-44" x="510.009766"/>
      <use xlink:href="#LucidaGrande-20" x="584.912109"/>
      <use xlink:href="#LucidaGrande-4d" x="616.552734"/>
      <use xlink:href="#LucidaGrande-45" x="702.685547"/>
      <use xlink:href="#LucidaGrande-54" x="756.884766"/>
      <use xlink:href="#LucidaGrande-41" x="820.117188"/>
      <use xlink:href="#LucidaGrande-42" x="889.111328"/>
      <use xlink:href="#LucidaGrande-4f" x="946.630859"/>
      <use xlink:href="#LucidaGrande-4c" x="1024.316406"/>
      <use xlink:href="#LucidaGrande-49" x="1077.636719"/>
      <use xlink:href="#LucidaGrande-53" x="1106.445312"/>
      <use xlink:href="#LucidaGrande-4d" x="1160.302734"/>
      <use xlink:href="#LucidaGrande-20" x="1246.435547"/>
      <use xlink:href="#LucidaGrande-28" x="1278.076172"/>
      <use xlink:href="#LucidaGrande-37" x="1310.595703"/>
      <use xlink:href="#LucidaGrande-39" x="1373.828125"/>
      <use xlink:href="#LucidaGrande-34" x="1437.060547"/>
      <use xlink:href="#LucidaGrande-2c" x="1500.292969"/>
      <use xlink:href="#LucidaGrande-20" x="1531.933594"/>
      <use xlink:href="#LucidaGrande-32" x="1563.574219"/>
      <use xlink:href="#LucidaGrande-36" x="1626.806641"/>
      <use xlink:href="#LucidaGrande-2e" x="1690.039062"/>
      <use xlink:href="#LucidaGrande-37" x="1721.679688"/>
      <use xlink:href="#LucidaGrande-25" x="1784.912109"/>
      <use xlink:href="#LucidaGrande-29" x="1851.757812"/>
     </g>
    </g>
    <g id="patch_17">
     <path d="M 283.00025 235.403063 
L 303.00025 235.403063 
L 303.00025 228.403063 
L 283.00025 228.403063 
z
" style="fill: #ff7f0e"/>
    </g>
    <g id="text_14">
     <!-- TRANSPORT, EXTRACELLULAR (642, 21.6%) -->
     <g transform="translate(311.00025 235.403063) scale(0.1 -0.1)">
      <defs>
       <path id="LucidaGrande-4e" d="M 597 0 
L 597 4625 
L 1241 4625 
L 3569 1053 
L 3569 4625 
L 4131 4625 
L 4131 0 
L 3491 0 
L 1159 3572 
L 1159 0 
L 597 0 
z
" transform="scale(0.015625)"/>
       <path id="LucidaGrande-50" d="M 597 0 
L 597 4625 
L 1856 4625 
Q 2694 4625 3059 4342 
Q 3425 4059 3425 3413 
Q 3425 2675 2925 2256 
Q 2425 1838 1538 1838 
L 1247 1838 
L 1247 0 
L 597 0 
z
M 1247 2334 
L 1513 2334 
Q 2097 2334 2415 2603 
Q 2734 2872 2734 3363 
Q 2734 3778 2484 3956 
Q 2234 4134 1650 4134 
L 1247 4134 
L 1247 2334 
z
" transform="scale(0.015625)"/>
       <path id="LucidaGrande-58" d="M 50 0 
L 1584 2322 
L 125 4625 
L 900 4625 
L 2013 2881 
L 3181 4625 
L 3800 4625 
L 2322 2391 
L 3838 0 
L 3063 0 
L 1888 1834 
L 672 0 
L 50 0 
z
" transform="scale(0.015625)"/>
       <path id="LucidaGrande-55" d="M 559 4625 
L 1216 4625 
L 1216 1706 
Q 1216 1009 1473 692 
Q 1731 375 2294 375 
Q 2844 375 3073 673 
Q 3303 972 3303 1684 
L 3303 4625 
L 3878 4625 
L 3878 1694 
Q 3878 747 3489 315 
Q 3100 -116 2250 -116 
Q 1384 -116 971 331 
Q 559 778 559 1713 
L 559 4625 
z
" transform="scale(0.015625)"/>
      </defs>
      <use xlink:href="#LucidaGrande-54"/>
      <use xlink:href="#LucidaGrande-52" x="63.232422"/>
      <use xlink:href="#LucidaGrande-41" x="126.464844"/>
      <use xlink:href="#LucidaGrande-4e" x="195.458984"/>
      <use xlink:href="#LucidaGrande-53" x="269.335938"/>
      <use xlink:href="#LucidaGrande-50" x="323.193359"/>
      <use xlink:href="#LucidaGrande-4f" x="378.466797"/>
      <use xlink:href="#LucidaGrande-52" x="456.152344"/>
      <use xlink:href="#LucidaGrande-54" x="519.384766"/>
      <use xlink:href="#LucidaGrande-2c" x="582.617188"/>
      <use xlink:href="#LucidaGrande-20" x="614.257812"/>
      <use xlink:href="#LucidaGrande-45" x="645.898438"/>
      <use xlink:href="#LucidaGrande-58" x="700.097656"/>
      <use xlink:href="#LucidaGrande-54" x="762.695312"/>
      <use xlink:href="#LucidaGrande-52" x="825.927734"/>
      <use xlink:href="#LucidaGrande-41" x="889.160156"/>
      <use xlink:href="#LucidaGrande-43" x="958.154297"/>
      <use xlink:href="#LucidaGrande-45" x="1027.34375"/>
      <use xlink:href="#LucidaGrande-4c" x="1081.542969"/>
      <use xlink:href="#LucidaGrande-4c" x="1134.863281"/>
      <use xlink:href="#LucidaGrande-55" x="1188.183594"/>
      <use xlink:href="#LucidaGrande-4c" x="1257.470703"/>
      <use xlink:href="#LucidaGrande-41" x="1310.791016"/>
      <use xlink:href="#LucidaGrande-52" x="1379.785156"/>
      <use xlink:href="#LucidaGrande-20" x="1443.017578"/>
      <use xlink:href="#LucidaGrande-28" x="1474.658203"/>
      <use xlink:href="#LucidaGrande-36" x="1507.177734"/>
      <use xlink:href="#LucidaGrande-34" x="1570.410156"/>
      <use xlink:href="#LucidaGrande-32" x="1633.642578"/>
      <use xlink:href="#LucidaGrande-2c" x="1696.875"/>
      <use xlink:href="#LucidaGrande-20" x="1728.515625"/>
      <use xlink:href="#LucidaGrande-32" x="1760.15625"/>
      <use xlink:href="#LucidaGrande-31" x="1823.388672"/>
      <use xlink:href="#LucidaGrande-2e" x="1886.621094"/>
      <use xlink:href="#LucidaGrande-36" x="1918.261719"/>
      <use xlink:href="#LucidaGrande-25" x="1981.494141"/>
      <use xlink:href="#LucidaGrande-29" x="2048.339844"/>
     </g>
    </g>
    <g id="patch_18">
     <path d="M 283.00025 250.040563 
L 303.00025 250.040563 
L 303.00025 243.040563 
L 283.00025 243.040563 
z
" style="fill: #2ca02c"/>
    </g>
    <g id="text_15">
     <!-- CHOLESTEROL METABOLISM (204, 6.9%) -->
     <g transform="translate(311.00025 250.040563) scale(0.1 -0.1)">
      <defs>
       <path id="LucidaGrande-48" d="M 597 0 
L 597 4625 
L 1253 4625 
L 1253 2675 
L 3453 2675 
L 3453 4625 
L 4109 4625 
L 4109 0 
L 3453 0 
L 3453 2184 
L 1253 2184 
L 1253 0 
L 597 0 
z
" transform="scale(0.015625)"/>
       <path id="LucidaGrande-30" d="M 2006 -116 
Q 1291 -116 848 557 
Q 406 1231 406 2316 
Q 406 3409 851 4075 
Q 1297 4741 2025 4741 
Q 2753 4741 3198 4075 
Q 3644 3409 3644 2325 
Q 3644 1213 3198 548 
Q 2753 -116 2006 -116 
z
M 2013 347 
Q 2991 347 2991 2334 
Q 2991 4278 2025 4278 
Q 1063 4278 1063 2316 
Q 1063 347 2013 347 
z
" transform="scale(0.015625)"/>
      </defs>
      <use xlink:href="#LucidaGrande-43"/>
      <use xlink:href="#LucidaGrande-48" x="69.189453"/>
      <use xlink:href="#LucidaGrande-4f" x="142.675781"/>
      <use xlink:href="#LucidaGrande-4c" x="220.361328"/>
      <use xlink:href="#LucidaGrande-45" x="273.681641"/>
      <use xlink:href="#LucidaGrande-53" x="327.880859"/>
      <use xlink:href="#LucidaGrande-54" x="381.738281"/>
      <use xlink:href="#LucidaGrande-45" x="444.970703"/>
      <use xlink:href="#LucidaGrande-52" x="499.169922"/>
      <use xlink:href="#LucidaGrande-4f" x="562.402344"/>
      <use xlink:href="#LucidaGrande-4c" x="640.087891"/>
      <use xlink:href="#LucidaGrande-20" x="693.408203"/>
      <use xlink:href="#LucidaGrande-4d" x="725.048828"/>
      <use xlink:href="#LucidaGrande-45" x="811.181641"/>
      <use xlink:href="#LucidaGrande-54" x="865.380859"/>
      <use xlink:href="#LucidaGrande-41" x="928.613281"/>
      <use xlink:href="#LucidaGrande-42" x="997.607422"/>
      <use xlink:href="#LucidaGrande-4f" x="1055.126953"/>
      <use xlink:href="#LucidaGrande-4c" x="1132.8125"/>
      <use xlink:href="#LucidaGrande-49" x="1186.132812"/>
      <use xlink:href="#LucidaGrande-53" x="1214.941406"/>
      <use xlink:href="#LucidaGrande-4d" x="1268.798828"/>
      <use xlink:href="#LucidaGrande-20" x="1354.931641"/>
      <use xlink:href="#LucidaGrande-28" x="1386.572266"/>
      <use xlink:href="#LucidaGrande-32" x="1419.091797"/>
      <use xlink:href="#LucidaGrande-30" x="1482.324219"/>
      <use xlink:href="#LucidaGrande-34" x="1545.556641"/>
      <use xlink:href="#LucidaGrande-2c" x="1608.789062"/>
      <use xlink:href="#LucidaGrande-20" x="1640.429688"/>
      <use xlink:href="#LucidaGrande-36" x="1672.070312"/>
      <use xlink:href="#LucidaGrande-2e" x="1735.302734"/>
      <use xlink:href="#LucidaGrande-39" x="1766.943359"/>
      <use xlink:href="#LucidaGrande-25" x="1830.175781"/>
      <use xlink:href="#LucidaGrande-29" x="1897.021484"/>
     </g>
    </g>
    <g id="patch_19">
     <path d="M 283.00025 264.678063 
L 303.00025 264.678063 
L 303.00025 257.678063 
L 283.00025 257.678063 
z
" style="fill: #d62728"/>
    </g>
    <g id="text_16">
     <!-- TRANSPORT, ENDOPLASMIC RETICULAR (137, 4.6%) -->
     <g transform="translate(311.00025 264.678063) scale(0.1 -0.1)">
      <use xlink:href="#LucidaGrande-54"/>
      <use xlink:href="#LucidaGrande-52" x="63.232422"/>
      <use xlink:href="#LucidaGrande-41" x="126.464844"/>
      <use xlink:href="#LucidaGrande-4e" x="195.458984"/>
      <use xlink:href="#LucidaGrande-53" x="269.335938"/>
      <use xlink:href="#LucidaGrande-50" x="323.193359"/>
      <use xlink:href="#LucidaGrande-4f" x="378.466797"/>
      <use xlink:href="#LucidaGrande-52" x="456.152344"/>
      <use xlink:href="#LucidaGrande-54" x="519.384766"/>
      <use xlink:href="#LucidaGrande-2c" x="582.617188"/>
      <use xlink:href="#LucidaGrande-20" x="614.257812"/>
      <use xlink:href="#LucidaGrande-45" x="645.898438"/>
      <use xlink:href="#LucidaGrande-4e" x="700.097656"/>
      <use xlink:href="#LucidaGrande-44" x="773.974609"/>
      <use xlink:href="#LucidaGrande-4f" x="848.876953"/>
      <use xlink:href="#LucidaGrande-50" x="926.5625"/>
      <use xlink:href="#LucidaGrande-4c" x="981.835938"/>
      <use xlink:href="#LucidaGrande-41" x="1035.15625"/>
      <use xlink:href="#LucidaGrande-53" x="1104.150391"/>
      <use xlink:href="#LucidaGrande-4d" x="1158.007812"/>
      <use xlink:href="#LucidaGrande-49" x="1244.140625"/>
      <use xlink:href="#LucidaGrande-43" x="1272.949219"/>
      <use xlink:href="#LucidaGrande-20" x="1342.138672"/>
      <use xlink:href="#LucidaGrande-52" x="1373.779297"/>
      <use xlink:href="#LucidaGrande-45" x="1437.011719"/>
      <use xlink:href="#LucidaGrande-54" x="1491.210938"/>
      <use xlink:href="#LucidaGrande-49" x="1554.443359"/>
      <use xlink:href="#LucidaGrande-43" x="1583.251953"/>
      <use xlink:href="#LucidaGrande-55" x="1652.441406"/>
      <use xlink:href="#LucidaGrande-4c" x="1721.728516"/>
      <use xlink:href="#LucidaGrande-41" x="1775.048828"/>
      <use xlink:href="#LucidaGrande-52" x="1844.042969"/>
      <use xlink:href="#LucidaGrande-20" x="1907.275391"/>
      <use xlink:href="#LucidaGrande-28" x="1938.916016"/>
      <use xlink:href="#LucidaGrande-31" x="1971.435547"/>
      <use xlink:href="#LucidaGrande-33" x="2034.667969"/>
      <use xlink:href="#LucidaGrande-37" x="2097.900391"/>
      <use xlink:href="#LucidaGrande-2c" x="2161.132812"/>
      <use xlink:href="#LucidaGrande-20" x="2192.773438"/>
      <use xlink:href="#LucidaGrande-34" x="2224.414062"/>
      <use xlink:href="#LucidaGrande-2e" x="2287.646484"/>
      <use xlink:href="#LucidaGrande-36" x="2319.287109"/>
      <use xlink:href="#LucidaGrande-25" x="2382.519531"/>
      <use xlink:href="#LucidaGrande-29" x="2449.365234"/>
     </g>
    </g>
    <g id="patch_20">
     <path d="M 283.00025 279.315563 
L 303.00025 279.315563 
L 303.00025 272.315563 
L 283.00025 272.315563 
z
" style="fill: #9467bd"/>
    </g>
    <g id="text_17">
     <!-- BILE ACID SYNTHESIS (116, 3.9%) -->
     <g transform="translate(311.00025 279.315563) scale(0.1 -0.1)">
      <use xlink:href="#LucidaGrande-42"/>
      <use xlink:href="#LucidaGrande-49" x="57.519531"/>
      <use xlink:href="#LucidaGrande-4c" x="86.328125"/>
      <use xlink:href="#LucidaGrande-45" x="139.648438"/>
      <use xlink:href="#LucidaGrande-20" x="193.847656"/>
      <use xlink:href="#LucidaGrande-41" x="225.488281"/>
      <use xlink:href="#LucidaGrande-43" x="294.482422"/>
      <use xlink:href="#LucidaGrande-49" x="363.671875"/>
      <use xlink:href="#LucidaGrande-44" x="392.480469"/>
      <use xlink:href="#LucidaGrande-20" x="467.382812"/>
      <use xlink:href="#LucidaGrande-53" x="499.023438"/>
      <use xlink:href="#LucidaGrande-59" x="552.880859"/>
      <use xlink:href="#LucidaGrande-4e" x="615.185547"/>
      <use xlink:href="#LucidaGrande-54" x="689.0625"/>
      <use xlink:href="#LucidaGrande-48" x="752.294922"/>
      <use xlink:href="#LucidaGrande-45" x="825.78125"/>
      <use xlink:href="#LucidaGrande-53" x="879.980469"/>
      <use xlink:href="#LucidaGrande-49" x="933.837891"/>
      <use xlink:href="#LucidaGrande-53" x="962.646484"/>
      <use xlink:href="#LucidaGrande-20" x="1016.503906"/>
      <use xlink:href="#LucidaGrande-28" x="1048.144531"/>
      <use xlink:href="#LucidaGrande-31" x="1080.664062"/>
      <use xlink:href="#LucidaGrande-31" x="1143.896484"/>
      <use xlink:href="#LucidaGrande-36" x="1207.128906"/>
      <use xlink:href="#LucidaGrande-2c" x="1270.361328"/>
      <use xlink:href="#LucidaGrande-20" x="1302.001953"/>
      <use xlink:href="#LucidaGrande-33" x="1333.642578"/>
      <use xlink:href="#LucidaGrande-2e" x="1396.875"/>
      <use xlink:href="#LucidaGrande-39" x="1428.515625"/>
      <use xlink:href="#LucidaGrande-25" x="1491.748047"/>
      <use xlink:href="#LucidaGrande-29" x="1558.59375"/>
     </g>
    </g>
    <g id="patch_21">
     <path d="M 283.00025 293.953063 
L 303.00025 293.953063 
L 303.00025 286.953063 
L 283.00025 286.953063 
z
" style="fill: #8c564b"/>
    </g>
    <g id="text_18">
     <!-- TRANSPORT, MITOCHONDRIAL (107, 3.6%) -->
     <g transform="translate(311.00025 293.953063) scale(0.1 -0.1)">
      <use xlink:href="#LucidaGrande-54"/>
      <use xlink:href="#LucidaGrande-52" x="63.232422"/>
      <use xlink:href="#LucidaGrande-41" x="126.464844"/>
      <use xlink:href="#LucidaGrande-4e" x="195.458984"/>
      <use xlink:href="#LucidaGrande-53" x="269.335938"/>
      <use xlink:href="#LucidaGrande-50" x="323.193359"/>
      <use xlink:href="#LucidaGrande-4f" x="378.466797"/>
      <use xlink:href="#LucidaGrande-52" x="456.152344"/>
      <use xlink:href="#LucidaGrande-54" x="519.384766"/>
      <use xlink:href="#LucidaGrande-2c" x="582.617188"/>
      <use xlink:href="#LucidaGrande-20" x="614.257812"/>
      <use xlink:href="#LucidaGrande-4d" x="645.898438"/>
      <use xlink:href="#LucidaGrande-49" x="732.03125"/>
      <use xlink:href="#LucidaGrande-54" x="760.839844"/>
      <use xlink:href="#LucidaGrande-4f" x="824.072266"/>
      <use xlink:href="#LucidaGrande-43" x="901.757812"/>
      <use xlink:href="#LucidaGrande-48" x="970.947266"/>
      <use xlink:href="#LucidaGrande-4f" x="1044.433594"/>
      <use xlink:href="#LucidaGrande-4e" x="1122.119141"/>
      <use xlink:href="#LucidaGrande-44" x="1195.996094"/>
      <use xlink:href="#LucidaGrande-52" x="1270.898438"/>
      <use xlink:href="#LucidaGrande-49" x="1334.130859"/>
      <use xlink:href="#LucidaGrande-41" x="1362.939453"/>
      <use xlink:href="#LucidaGrande-4c" x="1431.933594"/>
      <use xlink:href="#LucidaGrande-20" x="1485.253906"/>
      <use xlink:href="#LucidaGrande-28" x="1516.894531"/>
      <use xlink:href="#LucidaGrande-31" x="1549.414062"/>
      <use xlink:href="#LucidaGrande-30" x="1612.646484"/>
      <use xlink:href="#LucidaGrande-37" x="1675.878906"/>
      <use xlink:href="#LucidaGrande-2c" x="1739.111328"/>
      <use xlink:href="#LucidaGrande-20" x="1770.751953"/>
      <use xlink:href="#LucidaGrande-33" x="1802.392578"/>
      <use xlink:href="#LucidaGrande-2e" x="1865.625"/>
      <use xlink:href="#LucidaGrande-36" x="1897.265625"/>
      <use xlink:href="#LucidaGrande-25" x="1960.498047"/>
      <use xlink:href="#LucidaGrande-29" x="2027.34375"/>
     </g>
    </g>
    <g id="patch_22">
     <path d="M 283.00025 308.590563 
L 303.00025 308.590563 
L 303.00025 301.590563 
L 283.00025 301.590563 
z
" style="fill: #e377c2"/>
    </g>
    <g id="text_19">
     <!-- UNASSIGNED (94, 3.2%) -->
     <g transform="translate(311.00025 308.590563) scale(0.1 -0.1)">
      <defs>
       <path id="LucidaGrande-47" d="M 4072 125 
Q 3231 -116 2606 -116 
Q 1503 -116 914 512 
Q 325 1141 325 2313 
Q 325 3463 922 4102 
Q 1519 4741 2597 4741 
Q 3303 4741 4066 4531 
L 4066 3925 
Q 3109 4250 2600 4250 
Q 1850 4250 1436 3740 
Q 1022 3231 1022 2306 
Q 1022 1391 1465 883 
Q 1909 375 2709 375 
Q 3038 375 3419 491 
L 3419 1997 
L 4072 1997 
L 4072 125 
z
" transform="scale(0.015625)"/>
      </defs>
      <use xlink:href="#LucidaGrande-55"/>
      <use xlink:href="#LucidaGrande-4e" x="69.287109"/>
      <use xlink:href="#LucidaGrande-41" x="143.164062"/>
      <use xlink:href="#LucidaGrande-53" x="212.158203"/>
      <use xlink:href="#LucidaGrande-53" x="266.015625"/>
      <use xlink:href="#LucidaGrande-49" x="319.873047"/>
      <use xlink:href="#LucidaGrande-47" x="348.681641"/>
      <use xlink:href="#LucidaGrande-4e" x="420.947266"/>
      <use xlink:href="#LucidaGrande-45" x="494.824219"/>
      <use xlink:href="#LucidaGrande-44" x="549.023438"/>
      <use xlink:href="#LucidaGrande-20" x="623.925781"/>
      <use xlink:href="#LucidaGrande-28" x="655.566406"/>
      <use xlink:href="#LucidaGrande-39" x="688.085938"/>
      <use xlink:href="#LucidaGrande-34" x="751.318359"/>
      <use xlink:href="#LucidaGrande-2c" x="814.550781"/>
      <use xlink:href="#LucidaGrande-20" x="846.191406"/>
      <use xlink:href="#LucidaGrande-33" x="877.832031"/>
      <use xlink:href="#LucidaGrande-2e" x="941.064453"/>
      <use xlink:href="#LucidaGrande-32" x="972.705078"/>
      <use xlink:href="#LucidaGrande-25" x="1035.9375"/>
      <use xlink:href="#LucidaGrande-29" x="1102.783203"/>
     </g>
    </g>
    <g id="patch_23">
     <path d="M 283.00025 323.228063 
L 303.00025 323.228063 
L 303.00025 316.228063 
L 283.00025 316.228063 
z
" style="fill: #7f7f7f"/>
    </g>
    <g id="text_20">
     <!-- GLYCOSPHINGOLIPID METABOLISM (91, 3.1%) -->
     <g transform="translate(311.00025 323.228063) scale(0.1 -0.1)">
      <use xlink:href="#LucidaGrande-47"/>
      <use xlink:href="#LucidaGrande-4c" x="72.265625"/>
      <use xlink:href="#LucidaGrande-59" x="125.585938"/>
      <use xlink:href="#LucidaGrande-43" x="187.890625"/>
      <use xlink:href="#LucidaGrande-4f" x="257.080078"/>
      <use xlink:href="#LucidaGrande-53" x="334.765625"/>
      <use xlink:href="#LucidaGrande-50" x="388.623047"/>
      <use xlink:href="#LucidaGrande-48" x="443.896484"/>
      <use xlink:href="#LucidaGrande-49" x="517.382812"/>
      <use xlink:href="#LucidaGrande-4e" x="546.191406"/>
      <use xlink:href="#LucidaGrande-47" x="620.068359"/>
      <use xlink:href="#LucidaGrande-4f" x="692.333984"/>
      <use xlink:href="#LucidaGrande-4c" x="770.019531"/>
      <use xlink:href="#LucidaGrande-49" x="823.339844"/>
      <use xlink:href="#LucidaGrande-50" x="852.148438"/>
      <use xlink:href="#LucidaGrande-49" x="907.421875"/>
      <use xlink:href="#LucidaGrande-44" x="936.230469"/>
      <use xlink:href="#LucidaGrande-20" x="1011.132812"/>
      <use xlink:href="#LucidaGrande-4d" x="1042.773438"/>
      <use xlink:href="#LucidaGrande-45" x="1128.90625"/>
      <use xlink:href="#LucidaGrande-54" x="1183.105469"/>
      <use xlink:href="#LucidaGrande-41" x="1246.337891"/>
      <use xlink:href="#LucidaGrande-42" x="1315.332031"/>
      <use xlink:href="#LucidaGrande-4f" x="1372.851562"/>
      <use xlink:href="#LucidaGrande-4c" x="1450.537109"/>
      <use xlink:href="#LucidaGrande-49" x="1503.857422"/>
      <use xlink:href="#LucidaGrande-53" x="1532.666016"/>
      <use xlink:href="#LucidaGrande-4d" x="1586.523438"/>
      <use xlink:href="#LucidaGrande-20" x="1672.65625"/>
      <use xlink:href="#LucidaGrande-28" x="1704.296875"/>
      <use xlink:href="#LucidaGrande-39" x="1736.816406"/>
      <use xlink:href="#LucidaGrande-31" x="1800.048828"/>
      <use xlink:href="#LucidaGrande-2c" x="1863.28125"/>
      <use xlink:href="#LucidaGrande-20" x="1894.921875"/>
      <use xlink:href="#LucidaGrande-33" x="1926.5625"/>
      <use xlink:href="#LucidaGrande-2e" x="1989.794922"/>
      <use xlink:href="#LucidaGrande-31" x="2021.435547"/>
      <use xlink:href="#LucidaGrande-25" x="2084.667969"/>
      <use xlink:href="#LucidaGrande-29" x="2151.513672"/>
     </g>
    </g>
    <g id="patch_24">
     <path d="M 283.00025 337.865563 
L 303.00025 337.865563 
L 303.00025 330.865563 
L 283.00025 330.865563 
z
" style="fill: #bcbd22"/>
    </g>
    <g id="text_21">
     <!-- XENOBIOTICS METABOLISM (61, 2.1%) -->
     <g transform="translate(311.00025 337.865563) scale(0.1 -0.1)">
      <use xlink:href="#LucidaGrande-58"/>
      <use xlink:href="#LucidaGrande-45" x="62.597656"/>
      <use xlink:href="#LucidaGrande-4e" x="116.796875"/>
      <use xlink:href="#LucidaGrande-4f" x="190.673828"/>
      <use xlink:href="#LucidaGrande-42" x="268.359375"/>
      <use xlink:href="#LucidaGrande-49" x="325.878906"/>
      <use xlink:href="#LucidaGrande-4f" x="354.6875"/>
      <use xlink:href="#LucidaGrande-54" x="432.373047"/>
      <use xlink:href="#LucidaGrande-49" x="495.605469"/>
      <use xlink:href="#LucidaGrande-43" x="524.414062"/>
      <use xlink:href="#LucidaGrande-53" x="593.603516"/>
      <use xlink:href="#LucidaGrande-20" x="647.460938"/>
      <use xlink:href="#LucidaGrande-4d" x="679.101562"/>
      <use xlink:href="#LucidaGrande-45" x="765.234375"/>
      <use xlink:href="#LucidaGrande-54" x="819.433594"/>
      <use xlink:href="#LucidaGrande-41" x="882.666016"/>
      <use xlink:href="#LucidaGrande-42" x="951.660156"/>
      <use xlink:href="#LucidaGrande-4f" x="1009.179688"/>
      <use xlink:href="#LucidaGrande-4c" x="1086.865234"/>
      <use xlink:href="#LucidaGrande-49" x="1140.185547"/>
      <use xlink:href="#LucidaGrande-53" x="1168.994141"/>
      <use xlink:href="#LucidaGrande-4d" x="1222.851562"/>
      <use xlink:href="#LucidaGrande-20" x="1308.984375"/>
      <use xlink:href="#LucidaGrande-28" x="1340.625"/>
      <use xlink:href="#LucidaGrande-36" x="1373.144531"/>
      <use xlink:href="#LucidaGrande-31" x="1436.376953"/>
      <use xlink:href="#LucidaGrande-2c" x="1499.609375"/>
      <use xlink:href="#LucidaGrande-20" x="1531.25"/>
      <use xlink:href="#LucidaGrande-32" x="1562.890625"/>
      <use xlink:href="#LucidaGrande-2e" x="1626.123047"/>
      <use xlink:href="#LucidaGrande-31" x="1657.763672"/>
      <use xlink:href="#LucidaGrande-25" x="1720.996094"/>
      <use xlink:href="#LucidaGrande-29" x="1787.841797"/>
     </g>
    </g>
    <g id="patch_25">
     <path d="M 283.00025 352.503063 
L 303.00025 352.503063 
L 303.00025 345.503063 
L 283.00025 345.503063 
z
" style="fill: #17becf"/>
    </g>
    <g id="text_22">
     <!-- TRANSPORT, LYSOSOMAL (56, 1.9%) -->
     <g transform="translate(311.00025 352.503063) scale(0.1 -0.1)">
      <defs>
       <path id="LucidaGrande-35" d="M 778 -19 
L 778 531 
Q 1238 347 1653 347 
Q 2109 347 2370 615 
Q 2631 884 2631 1356 
Q 2631 2397 1197 2397 
Q 1034 2397 856 2375 
L 856 4625 
L 3197 4625 
L 3197 4088 
L 1397 4088 
L 1397 2869 
Q 2288 2869 2788 2459 
Q 3288 2050 3288 1325 
Q 3288 650 2833 267 
Q 2378 -116 1572 -116 
Q 1222 -116 778 -19 
z
" transform="scale(0.015625)"/>
      </defs>
      <use xlink:href="#LucidaGrande-54"/>
      <use xlink:href="#LucidaGrande-52" x="63.232422"/>
      <use xlink:href="#LucidaGrande-41" x="126.464844"/>
      <use xlink:href="#LucidaGrande-4e" x="195.458984"/>
      <use xlink:href="#LucidaGrande-53" x="269.335938"/>
      <use xlink:href="#LucidaGrande-50" x="323.193359"/>
      <use xlink:href="#LucidaGrande-4f" x="378.466797"/>
      <use xlink:href="#LucidaGrande-52" x="456.152344"/>
      <use xlink:href="#LucidaGrande-54" x="519.384766"/>
      <use xlink:href="#LucidaGrande-2c" x="582.617188"/>
      <use xlink:href="#LucidaGrande-20" x="614.257812"/>
      <use xlink:href="#LucidaGrande-4c" x="645.898438"/>
      <use xlink:href="#LucidaGrande-59" x="699.21875"/>
      <use xlink:href="#LucidaGrande-53" x="761.523438"/>
      <use xlink:href="#LucidaGrande-4f" x="815.380859"/>
      <use xlink:href="#LucidaGrande-53" x="893.066406"/>
      <use xlink:href="#LucidaGrande-4f" x="946.923828"/>
      <use xlink:href="#LucidaGrande-4d" x="1024.609375"/>
      <use xlink:href="#LucidaGrande-41" x="1110.742188"/>
      <use xlink:href="#LucidaGrande-4c" x="1179.736328"/>
      <use xlink:href="#LucidaGrande-20" x="1233.056641"/>
      <use xlink:href="#LucidaGrande-28" x="1264.697266"/>
      <use xlink:href="#LucidaGrande-35" x="1297.216797"/>
      <use xlink:href="#LucidaGrande-36" x="1360.449219"/>
      <use xlink:href="#LucidaGrande-2c" x="1423.681641"/>
      <use xlink:href="#LucidaGrande-20" x="1455.322266"/>
      <use xlink:href="#LucidaGrande-31" x="1486.962891"/>
      <use xlink:href="#LucidaGrande-2e" x="1550.195312"/>
      <use xlink:href="#LucidaGrande-39" x="1581.835938"/>
      <use xlink:href="#LucidaGrande-25" x="1645.068359"/>
      <use xlink:href="#LucidaGrande-29" x="1711.914062"/>
     </g>
    </g>
    <g id="patch_26">
     <path d="M 283.00025 367.140563 
L 303.00025 367.140563 
L 303.00025 360.140563 
L 283.00025 360.140563 
z
" style="fill: #1f77b4"/>
    </g>
    <g id="text_23">
     <!-- ARACHIDONIC ACID METABOLISM (55, 1.9%) -->
     <g transform="translate(311.00025 367.140563) scale(0.1 -0.1)">
      <use xlink:href="#LucidaGrande-41"/>
      <use xlink:href="#LucidaGrande-52" x="68.994141"/>
      <use xlink:href="#LucidaGrande-41" x="132.226562"/>
      <use xlink:href="#LucidaGrande-43" x="201.220703"/>
      <use xlink:href="#LucidaGrande-48" x="270.410156"/>
      <use xlink:href="#LucidaGrande-49" x="343.896484"/>
      <use xlink:href="#LucidaGrande-44" x="372.705078"/>
      <use xlink:href="#LucidaGrande-4f" x="447.607422"/>
      <use xlink:href="#LucidaGrande-4e" x="525.292969"/>
      <use xlink:href="#LucidaGrande-49" x="599.169922"/>
      <use xlink:href="#LucidaGrande-43" x="627.978516"/>
      <use xlink:href="#LucidaGrande-20" x="697.167969"/>
      <use xlink:href="#LucidaGrande-41" x="728.808594"/>
      <use xlink:href="#LucidaGrande-43" x="797.802734"/>
      <use xlink:href="#LucidaGrande-49" x="866.992188"/>
      <use xlink:href="#LucidaGrande-44" x="895.800781"/>
      <use xlink:href="#LucidaGrande-20" x="970.703125"/>
      <use xlink:href="#LucidaGrande-4d" x="1002.34375"/>
      <use xlink:href="#LucidaGrande-45" x="1088.476562"/>
      <use xlink:href="#LucidaGrande-54" x="1142.675781"/>
      <use xlink:href="#LucidaGrande-41" x="1205.908203"/>
      <use xlink:href="#LucidaGrande-42" x="1274.902344"/>
      <use xlink:href="#LucidaGrande-4f" x="1332.421875"/>
      <use xlink:href="#LucidaGrande-4c" x="1410.107422"/>
      <use xlink:href="#LucidaGrande-49" x="1463.427734"/>
      <use xlink:href="#LucidaGrande-53" x="1492.236328"/>
      <use xlink:href="#LucidaGrande-4d" x="1546.09375"/>
      <use xlink:href="#LucidaGrande-20" x="1632.226562"/>
      <use xlink:href="#LucidaGrande-28" x="1663.867188"/>
      <use xlink:href="#LucidaGrande-35" x="1696.386719"/>
      <use xlink:href="#LucidaGrande-35" x="1759.619141"/>
      <use xlink:href="#LucidaGrande-2c" x="1822.851562"/>
      <use xlink:href="#LucidaGrande-20" x="1854.492188"/>
      <use xlink:href="#LucidaGrande-31" x="1886.132812"/>
      <use xlink:href="#LucidaGrande-2e" x="1949.365234"/>
      <use xlink:href="#LucidaGrande-39" x="1981.005859"/>
      <use xlink:href="#LucidaGrande-25" x="2044.238281"/>
      <use xlink:href="#LucidaGrande-29" x="2111.083984"/>
     </g>
    </g>
    <g id="patch_27">
     <path d="M 283.00025 381.778063 
L 303.00025 381.778063 
L 303.00025 374.778063 
L 283.00025 374.778063 
z
" style="fill: #ff7f0e"/>
    </g>
    <g id="text_24">
     <!-- STEROID METABOLISM (45, 1.5%) -->
     <g transform="translate(311.00025 381.778063) scale(0.1 -0.1)">
      <use xlink:href="#LucidaGrande-53"/>
      <use xlink:href="#LucidaGrande-54" x="53.857422"/>
      <use xlink:href="#LucidaGrande-45" x="117.089844"/>
      <use xlink:href="#LucidaGrande-52" x="171.289062"/>
      <use xlink:href="#LucidaGrande-4f" x="234.521484"/>
      <use xlink:href="#LucidaGrande-49" x="312.207031"/>
      <use xlink:href="#LucidaGrande-44" x="341.015625"/>
      <use xlink:href="#LucidaGrande-20" x="415.917969"/>
      <use xlink:href="#LucidaGrande-4d" x="447.558594"/>
      <use xlink:href="#LucidaGrande-45" x="533.691406"/>
      <use xlink:href="#LucidaGrande-54" x="587.890625"/>
      <use xlink:href="#LucidaGrande-41" x="651.123047"/>
      <use xlink:href="#LucidaGrande-42" x="720.117188"/>
      <use xlink:href="#LucidaGrande-4f" x="777.636719"/>
      <use xlink:href="#LucidaGrande-4c" x="855.322266"/>
      <use xlink:href="#LucidaGrande-49" x="908.642578"/>
      <use xlink:href="#LucidaGrande-53" x="937.451172"/>
      <use xlink:href="#LucidaGrande-4d" x="991.308594"/>
      <use xlink:href="#LucidaGrande-20" x="1077.441406"/>
      <use xlink:href="#LucidaGrande-28" x="1109.082031"/>
      <use xlink:href="#LucidaGrande-34" x="1141.601562"/>
      <use xlink:href="#LucidaGrande-35" x="1204.833984"/>
      <use xlink:href="#LucidaGrande-2c" x="1268.066406"/>
      <use xlink:href="#LucidaGrande-20" x="1299.707031"/>
      <use xlink:href="#LucidaGrande-31" x="1331.347656"/>
      <use xlink:href="#LucidaGrande-2e" x="1394.580078"/>
      <use xlink:href="#LucidaGrande-35" x="1426.220703"/>
      <use xlink:href="#LucidaGrande-25" x="1489.453125"/>
      <use xlink:href="#LucidaGrande-29" x="1556.298828"/>
     </g>
    </g>
    <g id="patch_28">
     <path d="M 283.00025 396.415563 
L 303.00025 396.415563 
L 303.00025 389.415563 
L 283.00025 389.415563 
z
" style="fill: #2ca02c"/>
    </g>
    <g id="text_25">
     <!-- Other (small subsystems) (569, 19.2%) -->
     <g transform="translate(311.00025 396.415563) scale(0.1 -0.1)">
      <defs>
       <path id="LucidaGrande-61" d="M 2366 431 
Q 1813 -78 1300 -78 
Q 878 -78 600 186 
Q 322 450 322 853 
Q 322 1409 789 1707 
Q 1256 2006 2128 2006 
L 2275 2006 
L 2275 2416 
Q 2275 3006 1669 3006 
Q 1181 3006 616 2706 
L 616 3216 
Q 1238 3469 1781 3469 
Q 2350 3469 2620 3212 
Q 2891 2956 2891 2416 
L 2891 878 
Q 2891 350 3216 350 
Q 3256 350 3334 363 
L 3378 22 
Q 3169 -78 2916 -78 
Q 2484 -78 2366 431 
z
M 2275 766 
L 2275 1644 
L 2069 1650 
Q 1563 1650 1250 1458 
Q 938 1266 938 953 
Q 938 731 1094 578 
Q 1250 425 1475 425 
Q 1859 425 2275 766 
z
" transform="scale(0.015625)"/>
       <path id="LucidaGrande-6c" d="M 616 0 
L 616 4934 
L 1231 4934 
L 1231 0 
L 616 0 
z
" transform="scale(0.015625)"/>
      </defs>
      <use xlink:href="#LucidaGrande-4f"/>
      <use xlink:href="#LucidaGrande-74" x="77.685547"/>
      <use xlink:href="#LucidaGrande-68" x="115.087891"/>
      <use xlink:href="#LucidaGrande-65" x="177.148438"/>
      <use xlink:href="#LucidaGrande-72" x="232.861328"/>
      <use xlink:href="#LucidaGrande-20" x="273.779297"/>
      <use xlink:href="#LucidaGrande-28" x="305.419922"/>
      <use xlink:href="#LucidaGrande-73" x="337.939453"/>
      <use xlink:href="#LucidaGrande-6d" x="388.916016"/>
      <use xlink:href="#LucidaGrande-61" x="482.275391"/>
      <use xlink:href="#LucidaGrande-6c" x="537.5"/>
      <use xlink:href="#LucidaGrande-6c" x="566.40625"/>
      <use xlink:href="#LucidaGrande-20" x="595.3125"/>
      <use xlink:href="#LucidaGrande-73" x="626.953125"/>
      <use xlink:href="#LucidaGrande-75" x="677.929688"/>
      <use xlink:href="#LucidaGrande-62" x="739.990234"/>
      <use xlink:href="#LucidaGrande-73" x="802.929688"/>
      <use xlink:href="#LucidaGrande-79" x="853.90625"/>
      <use xlink:href="#LucidaGrande-73" x="906.152344"/>
      <use xlink:href="#LucidaGrande-74" x="957.128906"/>
      <use xlink:href="#LucidaGrande-65" x="994.53125"/>
      <use xlink:href="#LucidaGrande-6d" x="1050.244141"/>
      <use xlink:href="#LucidaGrande-73" x="1143.603516"/>
      <use xlink:href="#LucidaGrande-29" x="1194.580078"/>
      <use xlink:href="#LucidaGrande-20" x="1227.099609"/>
      <use xlink:href="#LucidaGrande-28" x="1258.740234"/>
      <use xlink:href="#LucidaGrande-35" x="1291.259766"/>
      <use xlink:href="#LucidaGrande-36" x="1354.492188"/>
      <use xlink:href="#LucidaGrande-39" x="1417.724609"/>
      <use xlink:href="#LucidaGrande-2c" x="1480.957031"/>
      <use xlink:href="#LucidaGrande-20" x="1512.597656"/>
      <use xlink:href="#LucidaGrande-31" x="1544.238281"/>
      <use xlink:href="#LucidaGrande-39" x="1607.470703"/>
      <use xlink:href="#LucidaGrande-2e" x="1670.703125"/>
      <use xlink:href="#LucidaGrande-32" x="1702.34375"/>
      <use xlink:href="#LucidaGrande-25" x="1765.576172"/>
      <use xlink:href="#LucidaGrande-29" x="1832.421875"/>
     </g>
    </g>
   </g>
  </g>
 </g>
</svg>
